<?xml version="1.0" encoding="UTF-8"?><svg xmlns="http://www.w3.org/2000/svg" xmlns:xlink="http://www.w3.org/1999/xlink" contentScriptType="text/ecmascript" fill="#52a8e2" width="483.2" zoomAndPan="magnify" contentStyleType="text/css" viewBox="8.4 15.0 483.2 20.0" height="20" preserveAspectRatio="xMidYMid meet" version="1"><g id="change1_1"><path fill="inherit" d="M481.59,35h-7.5c-5.52,0-10-4.48-10-10s4.48-10,10-10h7.5c5.52,0,10,4.48,10,10S487.11,35,481.59,35z"/><path fill="inherit" d="M431.91,35h-15.82c-5.52,0-10-4.48-10-10s4.48-10,10-10h15.82c5.52,0,10,4.48,10,10S437.43,35,431.91,35z M373.91,35 h-15.82c-5.52,0-10-4.48-10-10s4.48-10,10-10h15.82c5.52,0,10,4.48,10,10S379.43,35,373.91,35z M315.91,35h-15.82 c-5.52,0-10-4.48-10-10s4.48-10,10-10h15.82c5.52,0,10,4.48,10,10S321.43,35,315.91,35z M257.91,35h-15.82c-5.52,0-10-4.48-10-10 s4.48-10,10-10h15.82c5.52,0,10,4.48,10,10S263.43,35,257.91,35z M199.91,35h-15.82c-5.52,0-10-4.48-10-10s4.48-10,10-10h15.82 c5.52,0,10,4.48,10,10S205.43,35,199.91,35z M141.91,35h-15.82c-5.52,0-10-4.48-10-10s4.48-10,10-10h15.82c5.52,0,10,4.48,10,10 S147.43,35,141.91,35z M83.91,35H68.09c-5.52,0-10-4.48-10-10s4.48-10,10-10h15.82c5.52,0,10,4.48,10,10S89.43,35,83.91,35z"/><path fill="inherit" d="M25.91,35h-7.5c-5.52,0-10-4.48-10-10s4.48-10,10-10h7.5c5.52,0,10,4.48,10,10S31.43,35,25.91,35z"/></g></svg>