<?xml version="1.0" encoding="UTF-8"?><svg xmlns="http://www.w3.org/2000/svg" xmlns:xlink="http://www.w3.org/1999/xlink" contentScriptType="text/ecmascript" fill="#52a8e2" width="792.5" zoomAndPan="magnify" contentStyleType="text/css" viewBox="103.7 311.7 792.5 376.6" height="376.6" preserveAspectRatio="xMidYMid meet" version="1"><g id="change1_1"><path fill="inherit" d="M 114.15625 311.699219 C 108.40625 311.699219 103.730469 316.375 103.730469 322.125 C 103.730469 327.875 108.40625 332.550781 114.15625 332.550781 C 119.902344 332.550781 124.582031 327.875 124.582031 322.125 C 124.582031 316.375 119.902344 311.699219 114.15625 311.699219"/><path fill="inherit" d="M 173.519531 311.699219 C 167.769531 311.699219 163.089844 316.375 163.089844 322.125 C 163.089844 327.875 167.769531 332.550781 173.519531 332.550781 C 179.269531 332.550781 183.945312 327.875 183.945312 322.125 C 183.945312 316.375 179.269531 311.699219 173.519531 311.699219"/><path fill="inherit" d="M 232.878906 311.699219 C 227.128906 311.699219 222.453125 316.375 222.453125 322.125 C 222.453125 327.875 227.128906 332.550781 232.878906 332.550781 C 238.628906 332.550781 243.304688 327.875 243.304688 322.125 C 243.304688 316.375 238.628906 311.699219 232.878906 311.699219"/><path fill="inherit" d="M 292.242188 311.699219 C 286.492188 311.699219 281.8125 316.375 281.8125 322.125 C 281.8125 327.875 286.492188 332.550781 292.242188 332.550781 C 297.992188 332.550781 302.667969 327.875 302.667969 322.125 C 302.667969 316.375 297.992188 311.699219 292.242188 311.699219"/><path fill="inherit" d="M 351.605469 311.699219 C 345.855469 311.699219 341.179688 316.375 341.179688 322.125 C 341.179688 327.875 345.855469 332.550781 351.605469 332.550781 C 357.355469 332.550781 362.03125 327.875 362.03125 322.125 C 362.03125 316.375 357.355469 311.699219 351.605469 311.699219"/><path fill="inherit" d="M 410.96875 311.699219 C 405.21875 311.699219 400.539062 316.375 400.539062 322.125 C 400.539062 327.875 405.21875 332.550781 410.96875 332.550781 C 416.71875 332.550781 421.394531 327.875 421.394531 322.125 C 421.394531 316.375 416.71875 311.699219 410.96875 311.699219"/><path fill="inherit" d="M 470.328125 311.699219 C 464.578125 311.699219 459.902344 316.375 459.902344 322.125 C 459.902344 327.875 464.578125 332.550781 470.328125 332.550781 C 476.078125 332.550781 480.757812 327.875 480.757812 322.125 C 480.757812 316.375 476.078125 311.699219 470.328125 311.699219"/><path fill="inherit" d="M 114.15625 371.046875 C 108.40625 371.046875 103.730469 375.726562 103.730469 381.476562 C 103.730469 387.222656 108.40625 391.902344 114.15625 391.902344 C 119.902344 391.902344 124.582031 387.222656 124.582031 381.476562 C 124.582031 375.726562 119.902344 371.046875 114.15625 371.046875"/><path fill="inherit" d="M 173.519531 371.046875 C 167.769531 371.046875 163.089844 375.726562 163.089844 381.476562 C 163.089844 387.222656 167.769531 391.902344 173.519531 391.902344 C 179.269531 391.902344 183.945312 387.222656 183.945312 381.476562 C 183.945312 375.726562 179.269531 371.046875 173.519531 371.046875"/><path fill="inherit" d="M 232.878906 371.046875 C 227.128906 371.046875 222.453125 375.726562 222.453125 381.476562 C 222.453125 387.222656 227.128906 391.902344 232.878906 391.902344 C 238.628906 391.902344 243.304688 387.222656 243.304688 381.476562 C 243.304688 375.726562 238.628906 371.046875 232.878906 371.046875"/><path fill="inherit" d="M 292.242188 371.046875 C 286.492188 371.046875 281.8125 375.726562 281.8125 381.476562 C 281.8125 387.222656 286.492188 391.902344 292.242188 391.902344 C 297.992188 391.902344 302.667969 387.222656 302.667969 381.476562 C 302.667969 375.726562 297.992188 371.046875 292.242188 371.046875"/><path fill="inherit" d="M 351.605469 371.046875 C 345.855469 371.046875 341.179688 375.726562 341.179688 381.476562 C 341.179688 387.222656 345.855469 391.902344 351.605469 391.902344 C 357.355469 391.902344 362.03125 387.222656 362.03125 381.476562 C 362.03125 375.726562 357.355469 371.046875 351.605469 371.046875"/><path fill="inherit" d="M 410.96875 371.046875 C 405.21875 371.046875 400.539062 375.726562 400.539062 381.476562 C 400.539062 387.222656 405.21875 391.902344 410.96875 391.902344 C 416.71875 391.902344 421.394531 387.222656 421.394531 381.476562 C 421.394531 375.726562 416.71875 371.046875 410.96875 371.046875"/><path fill="inherit" d="M 470.328125 371.046875 C 464.578125 371.046875 459.902344 375.726562 459.902344 381.476562 C 459.902344 387.222656 464.578125 391.902344 470.328125 391.902344 C 476.078125 391.902344 480.757812 387.222656 480.757812 381.476562 C 480.757812 375.726562 476.078125 371.046875 470.328125 371.046875"/><path fill="inherit" d="M 114.15625 430.027344 C 108.40625 430.027344 103.730469 434.703125 103.730469 440.453125 C 103.730469 446.203125 108.40625 450.878906 114.15625 450.878906 C 119.902344 450.878906 124.582031 446.203125 124.582031 440.453125 C 124.582031 434.703125 119.902344 430.027344 114.15625 430.027344"/><path fill="inherit" d="M 173.519531 430.027344 C 167.769531 430.027344 163.089844 434.703125 163.089844 440.453125 C 163.089844 446.203125 167.769531 450.878906 173.519531 450.878906 C 179.269531 450.878906 183.945312 446.203125 183.945312 440.453125 C 183.945312 434.703125 179.269531 430.027344 173.519531 430.027344"/><path fill="inherit" d="M 232.878906 430.027344 C 227.128906 430.027344 222.453125 434.703125 222.453125 440.453125 C 222.453125 446.203125 227.128906 450.878906 232.878906 450.878906 C 238.628906 450.878906 243.304688 446.203125 243.304688 440.453125 C 243.304688 434.703125 238.628906 430.027344 232.878906 430.027344"/><path fill="inherit" d="M 292.242188 430.027344 C 286.492188 430.027344 281.8125 434.703125 281.8125 440.453125 C 281.8125 446.203125 286.492188 450.878906 292.242188 450.878906 C 297.992188 450.878906 302.667969 446.203125 302.667969 440.453125 C 302.667969 434.703125 297.992188 430.027344 292.242188 430.027344"/><path fill="inherit" d="M 351.605469 430.027344 C 345.855469 430.027344 341.179688 434.703125 341.179688 440.453125 C 341.179688 446.203125 345.855469 450.878906 351.605469 450.878906 C 357.355469 450.878906 362.03125 446.203125 362.03125 440.453125 C 362.03125 434.703125 357.355469 430.027344 351.605469 430.027344"/><path fill="inherit" d="M 410.96875 430.027344 C 405.21875 430.027344 400.539062 434.703125 400.539062 440.453125 C 400.539062 446.203125 405.21875 450.878906 410.96875 450.878906 C 416.71875 450.878906 421.394531 446.203125 421.394531 440.453125 C 421.394531 434.703125 416.71875 430.027344 410.96875 430.027344"/><path fill="inherit" d="M 470.328125 430.027344 C 464.578125 430.027344 459.902344 434.703125 459.902344 440.453125 C 459.902344 446.203125 464.578125 450.878906 470.328125 450.878906 C 476.078125 450.878906 480.757812 446.203125 480.757812 440.453125 C 480.757812 434.703125 476.078125 430.027344 470.328125 430.027344"/><path fill="inherit" d="M 114.15625 489.386719 C 108.40625 489.386719 103.730469 494.066406 103.730469 499.816406 C 103.730469 505.566406 108.40625 510.242188 114.15625 510.242188 C 119.902344 510.242188 124.582031 505.566406 124.582031 499.816406 C 124.582031 494.066406 119.902344 489.386719 114.15625 489.386719"/><path fill="inherit" d="M 173.519531 489.386719 C 167.769531 489.386719 163.089844 494.066406 163.089844 499.816406 C 163.089844 505.566406 167.769531 510.242188 173.519531 510.242188 C 179.269531 510.242188 183.945312 505.566406 183.945312 499.816406 C 183.945312 494.066406 179.269531 489.386719 173.519531 489.386719"/><path fill="inherit" d="M 232.878906 489.386719 C 227.128906 489.386719 222.453125 494.066406 222.453125 499.816406 C 222.453125 505.566406 227.128906 510.242188 232.878906 510.242188 C 238.628906 510.242188 243.304688 505.566406 243.304688 499.816406 C 243.304688 494.066406 238.628906 489.386719 232.878906 489.386719"/><path fill="inherit" d="M 292.242188 489.386719 C 286.492188 489.386719 281.8125 494.066406 281.8125 499.816406 C 281.8125 505.566406 286.492188 510.242188 292.242188 510.242188 C 297.992188 510.242188 302.667969 505.566406 302.667969 499.816406 C 302.667969 494.066406 297.992188 489.386719 292.242188 489.386719"/><path fill="inherit" d="M 351.605469 489.386719 C 345.855469 489.386719 341.179688 494.066406 341.179688 499.816406 C 341.179688 505.566406 345.855469 510.242188 351.605469 510.242188 C 357.355469 510.242188 362.03125 505.566406 362.03125 499.816406 C 362.03125 494.066406 357.355469 489.386719 351.605469 489.386719"/><path fill="inherit" d="M 410.96875 489.386719 C 405.21875 489.386719 400.539062 494.066406 400.539062 499.816406 C 400.539062 505.566406 405.21875 510.242188 410.96875 510.242188 C 416.71875 510.242188 421.394531 505.566406 421.394531 499.816406 C 421.394531 494.066406 416.71875 489.386719 410.96875 489.386719"/><path fill="inherit" d="M 470.328125 489.386719 C 464.578125 489.386719 459.902344 494.066406 459.902344 499.816406 C 459.902344 505.566406 464.578125 510.242188 470.328125 510.242188 C 476.078125 510.242188 480.757812 505.566406 480.757812 499.816406 C 480.757812 494.066406 476.078125 489.386719 470.328125 489.386719"/><path fill="inherit" d="M 114.15625 548.734375 C 108.40625 548.734375 103.730469 553.414062 103.730469 559.164062 C 103.730469 564.910156 108.40625 569.589844 114.15625 569.589844 C 119.902344 569.589844 124.582031 564.910156 124.582031 559.164062 C 124.582031 553.414062 119.902344 548.734375 114.15625 548.734375"/><path fill="inherit" d="M 173.519531 548.734375 C 167.769531 548.734375 163.089844 553.414062 163.089844 559.164062 C 163.089844 564.910156 167.769531 569.589844 173.519531 569.589844 C 179.269531 569.589844 183.945312 564.910156 183.945312 559.164062 C 183.945312 553.414062 179.269531 548.734375 173.519531 548.734375"/><path fill="inherit" d="M 232.878906 548.734375 C 227.128906 548.734375 222.453125 553.414062 222.453125 559.164062 C 222.453125 564.910156 227.128906 569.589844 232.878906 569.589844 C 238.628906 569.589844 243.304688 564.910156 243.304688 559.164062 C 243.304688 553.414062 238.628906 548.734375 232.878906 548.734375"/><path fill="inherit" d="M 292.242188 548.734375 C 286.492188 548.734375 281.8125 553.414062 281.8125 559.164062 C 281.8125 564.910156 286.492188 569.589844 292.242188 569.589844 C 297.992188 569.589844 302.667969 564.910156 302.667969 559.164062 C 302.667969 553.414062 297.992188 548.734375 292.242188 548.734375"/><path fill="inherit" d="M 351.605469 548.734375 C 345.855469 548.734375 341.179688 553.414062 341.179688 559.164062 C 341.179688 564.910156 345.855469 569.589844 351.605469 569.589844 C 357.355469 569.589844 362.03125 564.910156 362.03125 559.164062 C 362.03125 553.414062 357.355469 548.734375 351.605469 548.734375"/><path fill="inherit" d="M 410.96875 548.734375 C 405.21875 548.734375 400.539062 553.414062 400.539062 559.164062 C 400.539062 564.910156 405.21875 569.589844 410.96875 569.589844 C 416.71875 569.589844 421.394531 564.910156 421.394531 559.164062 C 421.394531 553.414062 416.71875 548.734375 410.96875 548.734375"/><path fill="inherit" d="M 470.328125 548.734375 C 464.578125 548.734375 459.902344 553.414062 459.902344 559.164062 C 459.902344 564.910156 464.578125 569.589844 470.328125 569.589844 C 476.078125 569.589844 480.757812 564.910156 480.757812 559.164062 C 480.757812 553.414062 476.078125 548.734375 470.328125 548.734375"/><path fill="inherit" d="M 114.15625 607.714844 C 108.40625 607.714844 103.730469 612.390625 103.730469 618.140625 C 103.730469 623.890625 108.40625 628.566406 114.15625 628.566406 C 119.902344 628.566406 124.582031 623.890625 124.582031 618.140625 C 124.582031 612.390625 119.902344 607.714844 114.15625 607.714844"/><path fill="inherit" d="M 173.519531 607.714844 C 167.769531 607.714844 163.089844 612.390625 163.089844 618.140625 C 163.089844 623.890625 167.769531 628.566406 173.519531 628.566406 C 179.269531 628.566406 183.945312 623.890625 183.945312 618.140625 C 183.945312 612.390625 179.269531 607.714844 173.519531 607.714844"/><path fill="inherit" d="M 232.878906 607.714844 C 227.128906 607.714844 222.453125 612.390625 222.453125 618.140625 C 222.453125 623.890625 227.128906 628.566406 232.878906 628.566406 C 238.628906 628.566406 243.304688 623.890625 243.304688 618.140625 C 243.304688 612.390625 238.628906 607.714844 232.878906 607.714844"/><path fill="inherit" d="M 292.242188 607.714844 C 286.492188 607.714844 281.8125 612.390625 281.8125 618.140625 C 281.8125 623.890625 286.492188 628.566406 292.242188 628.566406 C 297.992188 628.566406 302.667969 623.890625 302.667969 618.140625 C 302.667969 612.390625 297.992188 607.714844 292.242188 607.714844"/><path fill="inherit" d="M 351.605469 607.714844 C 345.855469 607.714844 341.179688 612.390625 341.179688 618.140625 C 341.179688 623.890625 345.855469 628.566406 351.605469 628.566406 C 357.355469 628.566406 362.03125 623.890625 362.03125 618.140625 C 362.03125 612.390625 357.355469 607.714844 351.605469 607.714844"/><path fill="inherit" d="M 410.96875 607.714844 C 405.21875 607.714844 400.539062 612.390625 400.539062 618.140625 C 400.539062 623.890625 405.21875 628.566406 410.96875 628.566406 C 416.71875 628.566406 421.394531 623.890625 421.394531 618.140625 C 421.394531 612.390625 416.71875 607.714844 410.96875 607.714844"/><path fill="inherit" d="M 470.328125 607.714844 C 464.578125 607.714844 459.902344 612.390625 459.902344 618.140625 C 459.902344 623.890625 464.578125 628.566406 470.328125 628.566406 C 476.078125 628.566406 480.757812 623.890625 480.757812 618.140625 C 480.757812 612.390625 476.078125 607.714844 470.328125 607.714844"/><path fill="inherit" d="M 114.15625 667.445312 C 108.40625 667.445312 103.730469 672.125 103.730469 677.875 C 103.730469 683.625 108.40625 688.300781 114.15625 688.300781 C 119.902344 688.300781 124.582031 683.625 124.582031 677.875 C 124.582031 672.125 119.902344 667.445312 114.15625 667.445312"/><path fill="inherit" d="M 173.519531 667.445312 C 167.769531 667.445312 163.089844 672.125 163.089844 677.875 C 163.089844 683.625 167.769531 688.300781 173.519531 688.300781 C 179.269531 688.300781 183.945312 683.625 183.945312 677.875 C 183.945312 672.125 179.269531 667.445312 173.519531 667.445312"/><path fill="inherit" d="M 232.878906 667.445312 C 227.128906 667.445312 222.453125 672.125 222.453125 677.875 C 222.453125 683.625 227.128906 688.300781 232.878906 688.300781 C 238.628906 688.300781 243.304688 683.625 243.304688 677.875 C 243.304688 672.125 238.628906 667.445312 232.878906 667.445312"/><path fill="inherit" d="M 292.242188 667.445312 C 286.492188 667.445312 281.8125 672.125 281.8125 677.875 C 281.8125 683.625 286.492188 688.300781 292.242188 688.300781 C 297.992188 688.300781 302.667969 683.625 302.667969 677.875 C 302.667969 672.125 297.992188 667.445312 292.242188 667.445312"/><path fill="inherit" d="M 351.605469 667.445312 C 345.855469 667.445312 341.179688 672.125 341.179688 677.875 C 341.179688 683.625 345.855469 688.300781 351.605469 688.300781 C 357.355469 688.300781 362.03125 683.625 362.03125 677.875 C 362.03125 672.125 357.355469 667.445312 351.605469 667.445312"/><path fill="inherit" d="M 410.96875 667.445312 C 405.21875 667.445312 400.539062 672.125 400.539062 677.875 C 400.539062 683.625 405.21875 688.300781 410.96875 688.300781 C 416.71875 688.300781 421.394531 683.625 421.394531 677.875 C 421.394531 672.125 416.71875 667.445312 410.96875 667.445312"/><path fill="inherit" d="M 470.328125 667.445312 C 464.578125 667.445312 459.902344 672.125 459.902344 677.875 C 459.902344 683.625 464.578125 688.300781 470.328125 688.300781 C 476.078125 688.300781 480.757812 683.625 480.757812 677.875 C 480.757812 672.125 476.078125 667.445312 470.328125 667.445312"/><path fill="inherit" d="M 529.667969 311.699219 C 523.917969 311.699219 519.242188 316.375 519.242188 322.125 C 519.242188 327.875 523.917969 332.550781 529.667969 332.550781 C 535.417969 332.550781 540.097656 327.875 540.097656 322.125 C 540.097656 316.375 535.417969 311.699219 529.667969 311.699219"/><path fill="inherit" d="M 589.03125 311.699219 C 583.28125 311.699219 578.605469 316.375 578.605469 322.125 C 578.605469 327.875 583.28125 332.550781 589.03125 332.550781 C 594.78125 332.550781 599.457031 327.875 599.457031 322.125 C 599.457031 316.375 594.78125 311.699219 589.03125 311.699219"/><path fill="inherit" d="M 648.394531 311.699219 C 642.644531 311.699219 637.96875 316.375 637.96875 322.125 C 637.96875 327.875 642.644531 332.550781 648.394531 332.550781 C 654.144531 332.550781 658.820312 327.875 658.820312 322.125 C 658.820312 316.375 654.144531 311.699219 648.394531 311.699219"/><path fill="inherit" d="M 707.757812 311.699219 C 702.007812 311.699219 697.328125 316.375 697.328125 322.125 C 697.328125 327.875 702.007812 332.550781 707.757812 332.550781 C 713.507812 332.550781 718.183594 327.875 718.183594 322.125 C 718.183594 316.375 713.507812 311.699219 707.757812 311.699219"/><path fill="inherit" d="M 767.117188 311.699219 C 761.371094 311.699219 756.691406 316.375 756.691406 322.125 C 756.691406 327.875 761.371094 332.550781 767.117188 332.550781 C 772.867188 332.550781 777.546875 327.875 777.546875 322.125 C 777.546875 316.375 772.867188 311.699219 767.117188 311.699219"/><path fill="inherit" d="M 826.480469 311.699219 C 820.730469 311.699219 816.054688 316.375 816.054688 322.125 C 816.054688 327.875 820.730469 332.550781 826.480469 332.550781 C 832.230469 332.550781 836.910156 327.875 836.910156 322.125 C 836.910156 316.375 832.230469 311.699219 826.480469 311.699219"/><path fill="inherit" d="M 885.84375 332.550781 C 891.59375 332.550781 896.269531 327.875 896.269531 322.125 C 896.269531 316.375 891.59375 311.699219 885.84375 311.699219 C 880.097656 311.699219 875.417969 316.375 875.417969 322.125 C 875.417969 327.875 880.097656 332.550781 885.84375 332.550781"/><path fill="inherit" d="M 529.667969 371.046875 C 523.917969 371.046875 519.242188 375.726562 519.242188 381.476562 C 519.242188 387.222656 523.917969 391.902344 529.667969 391.902344 C 535.417969 391.902344 540.097656 387.222656 540.097656 381.476562 C 540.097656 375.726562 535.417969 371.046875 529.667969 371.046875"/><path fill="inherit" d="M 589.03125 371.046875 C 583.28125 371.046875 578.605469 375.726562 578.605469 381.476562 C 578.605469 387.222656 583.28125 391.902344 589.03125 391.902344 C 594.78125 391.902344 599.457031 387.222656 599.457031 381.476562 C 599.457031 375.726562 594.78125 371.046875 589.03125 371.046875"/><path fill="inherit" d="M 648.394531 371.046875 C 642.644531 371.046875 637.96875 375.726562 637.96875 381.476562 C 637.96875 387.222656 642.644531 391.902344 648.394531 391.902344 C 654.144531 391.902344 658.820312 387.222656 658.820312 381.476562 C 658.820312 375.726562 654.144531 371.046875 648.394531 371.046875"/><path fill="inherit" d="M 707.757812 371.046875 C 702.007812 371.046875 697.328125 375.726562 697.328125 381.476562 C 697.328125 387.222656 702.007812 391.902344 707.757812 391.902344 C 713.507812 391.902344 718.183594 387.222656 718.183594 381.476562 C 718.183594 375.726562 713.507812 371.046875 707.757812 371.046875"/><path fill="inherit" d="M 767.117188 371.046875 C 761.371094 371.046875 756.691406 375.726562 756.691406 381.476562 C 756.691406 387.222656 761.371094 391.902344 767.117188 391.902344 C 772.867188 391.902344 777.546875 387.222656 777.546875 381.476562 C 777.546875 375.726562 772.867188 371.046875 767.117188 371.046875"/><path fill="inherit" d="M 826.480469 371.046875 C 820.730469 371.046875 816.054688 375.726562 816.054688 381.476562 C 816.054688 387.222656 820.730469 391.902344 826.480469 391.902344 C 832.230469 391.902344 836.910156 387.222656 836.910156 381.476562 C 836.910156 375.726562 832.230469 371.046875 826.480469 371.046875"/><path fill="inherit" d="M 885.84375 371.046875 C 880.097656 371.046875 875.417969 375.726562 875.417969 381.476562 C 875.417969 387.222656 880.097656 391.902344 885.84375 391.902344 C 891.59375 391.902344 896.269531 387.222656 896.269531 381.476562 C 896.269531 375.726562 891.59375 371.046875 885.84375 371.046875"/><path fill="inherit" d="M 529.667969 430.027344 C 523.917969 430.027344 519.242188 434.703125 519.242188 440.453125 C 519.242188 446.203125 523.917969 450.878906 529.667969 450.878906 C 535.417969 450.878906 540.097656 446.203125 540.097656 440.453125 C 540.097656 434.703125 535.417969 430.027344 529.667969 430.027344"/><path fill="inherit" d="M 589.03125 430.027344 C 583.28125 430.027344 578.605469 434.703125 578.605469 440.453125 C 578.605469 446.203125 583.28125 450.878906 589.03125 450.878906 C 594.78125 450.878906 599.457031 446.203125 599.457031 440.453125 C 599.457031 434.703125 594.78125 430.027344 589.03125 430.027344"/><path fill="inherit" d="M 648.394531 430.027344 C 642.644531 430.027344 637.96875 434.703125 637.96875 440.453125 C 637.96875 446.203125 642.644531 450.878906 648.394531 450.878906 C 654.144531 450.878906 658.820312 446.203125 658.820312 440.453125 C 658.820312 434.703125 654.144531 430.027344 648.394531 430.027344"/><path fill="inherit" d="M 707.757812 430.027344 C 702.007812 430.027344 697.328125 434.703125 697.328125 440.453125 C 697.328125 446.203125 702.007812 450.878906 707.757812 450.878906 C 713.507812 450.878906 718.183594 446.203125 718.183594 440.453125 C 718.183594 434.703125 713.507812 430.027344 707.757812 430.027344"/><path fill="inherit" d="M 767.117188 430.027344 C 761.371094 430.027344 756.691406 434.703125 756.691406 440.453125 C 756.691406 446.203125 761.371094 450.878906 767.117188 450.878906 C 772.867188 450.878906 777.546875 446.203125 777.546875 440.453125 C 777.546875 434.703125 772.867188 430.027344 767.117188 430.027344"/><path fill="inherit" d="M 826.480469 430.027344 C 820.730469 430.027344 816.054688 434.703125 816.054688 440.453125 C 816.054688 446.203125 820.730469 450.878906 826.480469 450.878906 C 832.230469 450.878906 836.910156 446.203125 836.910156 440.453125 C 836.910156 434.703125 832.230469 430.027344 826.480469 430.027344"/><path fill="inherit" d="M 885.84375 430.027344 C 880.097656 430.027344 875.417969 434.703125 875.417969 440.453125 C 875.417969 446.203125 880.097656 450.878906 885.84375 450.878906 C 891.59375 450.878906 896.269531 446.203125 896.269531 440.453125 C 896.269531 434.703125 891.59375 430.027344 885.84375 430.027344"/><path fill="inherit" d="M 529.667969 489.386719 C 523.917969 489.386719 519.242188 494.066406 519.242188 499.816406 C 519.242188 505.566406 523.917969 510.242188 529.667969 510.242188 C 535.417969 510.242188 540.097656 505.566406 540.097656 499.816406 C 540.097656 494.066406 535.417969 489.386719 529.667969 489.386719"/><path fill="inherit" d="M 589.03125 489.386719 C 583.28125 489.386719 578.605469 494.066406 578.605469 499.816406 C 578.605469 505.566406 583.28125 510.242188 589.03125 510.242188 C 594.78125 510.242188 599.457031 505.566406 599.457031 499.816406 C 599.457031 494.066406 594.78125 489.386719 589.03125 489.386719"/><path fill="inherit" d="M 648.394531 489.386719 C 642.644531 489.386719 637.96875 494.066406 637.96875 499.816406 C 637.96875 505.566406 642.644531 510.242188 648.394531 510.242188 C 654.144531 510.242188 658.820312 505.566406 658.820312 499.816406 C 658.820312 494.066406 654.144531 489.386719 648.394531 489.386719"/><path fill="inherit" d="M 707.757812 489.386719 C 702.007812 489.386719 697.328125 494.066406 697.328125 499.816406 C 697.328125 505.566406 702.007812 510.242188 707.757812 510.242188 C 713.507812 510.242188 718.183594 505.566406 718.183594 499.816406 C 718.183594 494.066406 713.507812 489.386719 707.757812 489.386719"/><path fill="inherit" d="M 767.117188 489.386719 C 761.371094 489.386719 756.691406 494.066406 756.691406 499.816406 C 756.691406 505.566406 761.371094 510.242188 767.117188 510.242188 C 772.867188 510.242188 777.546875 505.566406 777.546875 499.816406 C 777.546875 494.066406 772.867188 489.386719 767.117188 489.386719"/><path fill="inherit" d="M 826.480469 489.386719 C 820.730469 489.386719 816.054688 494.066406 816.054688 499.816406 C 816.054688 505.566406 820.730469 510.242188 826.480469 510.242188 C 832.230469 510.242188 836.910156 505.566406 836.910156 499.816406 C 836.910156 494.066406 832.230469 489.386719 826.480469 489.386719"/><path fill="inherit" d="M 885.84375 489.386719 C 880.097656 489.386719 875.417969 494.066406 875.417969 499.816406 C 875.417969 505.566406 880.097656 510.242188 885.84375 510.242188 C 891.59375 510.242188 896.269531 505.566406 896.269531 499.816406 C 896.269531 494.066406 891.59375 489.386719 885.84375 489.386719"/><path fill="inherit" d="M 529.667969 548.734375 C 523.917969 548.734375 519.242188 553.414062 519.242188 559.164062 C 519.242188 564.910156 523.917969 569.589844 529.667969 569.589844 C 535.417969 569.589844 540.097656 564.910156 540.097656 559.164062 C 540.097656 553.414062 535.417969 548.734375 529.667969 548.734375"/><path fill="inherit" d="M 589.03125 548.734375 C 583.28125 548.734375 578.605469 553.414062 578.605469 559.164062 C 578.605469 564.910156 583.28125 569.589844 589.03125 569.589844 C 594.78125 569.589844 599.457031 564.910156 599.457031 559.164062 C 599.457031 553.414062 594.78125 548.734375 589.03125 548.734375"/><path fill="inherit" d="M 648.394531 548.734375 C 642.644531 548.734375 637.96875 553.414062 637.96875 559.164062 C 637.96875 564.910156 642.644531 569.589844 648.394531 569.589844 C 654.144531 569.589844 658.820312 564.910156 658.820312 559.164062 C 658.820312 553.414062 654.144531 548.734375 648.394531 548.734375"/><path fill="inherit" d="M 707.757812 548.734375 C 702.007812 548.734375 697.328125 553.414062 697.328125 559.164062 C 697.328125 564.910156 702.007812 569.589844 707.757812 569.589844 C 713.507812 569.589844 718.183594 564.910156 718.183594 559.164062 C 718.183594 553.414062 713.507812 548.734375 707.757812 548.734375"/><path fill="inherit" d="M 767.117188 548.734375 C 761.371094 548.734375 756.691406 553.414062 756.691406 559.164062 C 756.691406 564.910156 761.371094 569.589844 767.117188 569.589844 C 772.867188 569.589844 777.546875 564.910156 777.546875 559.164062 C 777.546875 553.414062 772.867188 548.734375 767.117188 548.734375"/><path fill="inherit" d="M 826.480469 548.734375 C 820.730469 548.734375 816.054688 553.414062 816.054688 559.164062 C 816.054688 564.910156 820.730469 569.589844 826.480469 569.589844 C 832.230469 569.589844 836.910156 564.910156 836.910156 559.164062 C 836.910156 553.414062 832.230469 548.734375 826.480469 548.734375"/><path fill="inherit" d="M 885.84375 548.734375 C 880.097656 548.734375 875.417969 553.414062 875.417969 559.164062 C 875.417969 564.910156 880.097656 569.589844 885.84375 569.589844 C 891.59375 569.589844 896.269531 564.910156 896.269531 559.164062 C 896.269531 553.414062 891.59375 548.734375 885.84375 548.734375"/><path fill="inherit" d="M 529.667969 607.714844 C 523.917969 607.714844 519.242188 612.390625 519.242188 618.140625 C 519.242188 623.890625 523.917969 628.566406 529.667969 628.566406 C 535.417969 628.566406 540.097656 623.890625 540.097656 618.140625 C 540.097656 612.390625 535.417969 607.714844 529.667969 607.714844"/><path fill="inherit" d="M 589.03125 607.714844 C 583.28125 607.714844 578.605469 612.390625 578.605469 618.140625 C 578.605469 623.890625 583.28125 628.566406 589.03125 628.566406 C 594.78125 628.566406 599.457031 623.890625 599.457031 618.140625 C 599.457031 612.390625 594.78125 607.714844 589.03125 607.714844"/><path fill="inherit" d="M 648.394531 607.714844 C 642.644531 607.714844 637.96875 612.390625 637.96875 618.140625 C 637.96875 623.890625 642.644531 628.566406 648.394531 628.566406 C 654.144531 628.566406 658.820312 623.890625 658.820312 618.140625 C 658.820312 612.390625 654.144531 607.714844 648.394531 607.714844"/><path fill="inherit" d="M 707.757812 607.714844 C 702.007812 607.714844 697.328125 612.390625 697.328125 618.140625 C 697.328125 623.890625 702.007812 628.566406 707.757812 628.566406 C 713.507812 628.566406 718.183594 623.890625 718.183594 618.140625 C 718.183594 612.390625 713.507812 607.714844 707.757812 607.714844"/><path fill="inherit" d="M 767.117188 607.714844 C 761.371094 607.714844 756.691406 612.390625 756.691406 618.140625 C 756.691406 623.890625 761.371094 628.566406 767.117188 628.566406 C 772.867188 628.566406 777.546875 623.890625 777.546875 618.140625 C 777.546875 612.390625 772.867188 607.714844 767.117188 607.714844"/><path fill="inherit" d="M 826.480469 607.714844 C 820.730469 607.714844 816.054688 612.390625 816.054688 618.140625 C 816.054688 623.890625 820.730469 628.566406 826.480469 628.566406 C 832.230469 628.566406 836.910156 623.890625 836.910156 618.140625 C 836.910156 612.390625 832.230469 607.714844 826.480469 607.714844"/><path fill="inherit" d="M 885.84375 607.714844 C 880.097656 607.714844 875.417969 612.390625 875.417969 618.140625 C 875.417969 623.890625 880.097656 628.566406 885.84375 628.566406 C 891.59375 628.566406 896.269531 623.890625 896.269531 618.140625 C 896.269531 612.390625 891.59375 607.714844 885.84375 607.714844"/><path fill="inherit" d="M 529.667969 667.445312 C 523.917969 667.445312 519.242188 672.125 519.242188 677.875 C 519.242188 683.625 523.917969 688.300781 529.667969 688.300781 C 535.417969 688.300781 540.097656 683.625 540.097656 677.875 C 540.097656 672.125 535.417969 667.445312 529.667969 667.445312"/><path fill="inherit" d="M 589.03125 667.445312 C 583.28125 667.445312 578.605469 672.125 578.605469 677.875 C 578.605469 683.625 583.28125 688.300781 589.03125 688.300781 C 594.78125 688.300781 599.457031 683.625 599.457031 677.875 C 599.457031 672.125 594.78125 667.445312 589.03125 667.445312"/><path fill="inherit" d="M 648.394531 667.445312 C 642.644531 667.445312 637.96875 672.125 637.96875 677.875 C 637.96875 683.625 642.644531 688.300781 648.394531 688.300781 C 654.144531 688.300781 658.820312 683.625 658.820312 677.875 C 658.820312 672.125 654.144531 667.445312 648.394531 667.445312"/><path fill="inherit" d="M 707.757812 667.445312 C 702.007812 667.445312 697.328125 672.125 697.328125 677.875 C 697.328125 683.625 702.007812 688.300781 707.757812 688.300781 C 713.507812 688.300781 718.183594 683.625 718.183594 677.875 C 718.183594 672.125 713.507812 667.445312 707.757812 667.445312"/><path fill="inherit" d="M 767.117188 667.445312 C 761.371094 667.445312 756.691406 672.125 756.691406 677.875 C 756.691406 683.625 761.371094 688.300781 767.117188 688.300781 C 772.867188 688.300781 777.546875 683.625 777.546875 677.875 C 777.546875 672.125 772.867188 667.445312 767.117188 667.445312"/><path fill="inherit" d="M 826.480469 667.445312 C 820.730469 667.445312 816.054688 672.125 816.054688 677.875 C 816.054688 683.625 820.730469 688.300781 826.480469 688.300781 C 832.230469 688.300781 836.910156 683.625 836.910156 677.875 C 836.910156 672.125 832.230469 667.445312 826.480469 667.445312"/><path fill="inherit" d="M 885.84375 667.445312 C 880.097656 667.445312 875.417969 672.125 875.417969 677.875 C 875.417969 683.625 880.097656 688.300781 885.84375 688.300781 C 891.59375 688.300781 896.269531 683.625 896.269531 677.875 C 896.269531 672.125 891.59375 667.445312 885.84375 667.445312"/></g></svg>