<?xml version="1.0" encoding="UTF-8"?><svg xmlns="http://www.w3.org/2000/svg" xmlns:xlink="http://www.w3.org/1999/xlink" contentScriptType="text/ecmascript" fill="#000000" width="822.9" zoomAndPan="magnify" contentStyleType="text/css" viewBox="0.0 0.0 822.9 826.1" height="826.1" preserveAspectRatio="xMidYMid meet" version="1"><defs><clipPath id="a"><path d="M 822 427 L 822.910156 427 L 822.910156 429 L 822 429 Z M 822 427"/></clipPath><clipPath id="b"><path d="M 386 825 L 387 825 L 387 826.121094 L 386 826.121094 Z M 386 825"/></clipPath></defs><g><g id="change1_3"><path fill="#ffffff" d="M 357.941406 1.394531 C 357.941406 1.296875 357.863281 1.214844 357.765625 1.214844 C 357.667969 1.214844 357.589844 1.296875 357.589844 1.394531 C 357.589844 1.492188 357.667969 1.570312 357.765625 1.570312 C 357.863281 1.570312 357.941406 1.492188 357.941406 1.394531"/></g><g id="change1_4"><path fill="#ffffff" d="M 424.625 0.183594 C 424.625 0.0859375 424.546875 0.00390625 424.449219 0.00390625 C 424.351562 0.00390625 424.269531 0.0859375 424.269531 0.183594 C 424.269531 0.28125 424.351562 0.359375 424.449219 0.359375 C 424.546875 0.359375 424.625 0.28125 424.625 0.183594"/></g><g id="change1_5"><path fill="#ffffff" d="M 257.554688 29.03125 C 257.554688 28.933594 257.476562 28.855469 257.378906 28.855469 C 257.28125 28.855469 257.199219 28.933594 257.199219 29.03125 C 257.199219 29.132812 257.28125 29.210938 257.378906 29.210938 C 257.476562 29.210938 257.554688 29.132812 257.554688 29.03125"/></g><g id="change1_6"><path fill="#ffffff" d="M 323.34375 23.453125 C 323.34375 23.257812 323.183594 23.097656 322.988281 23.097656 C 322.792969 23.097656 322.636719 23.257812 322.636719 23.453125 C 322.636719 23.648438 322.792969 23.808594 322.988281 23.808594 C 323.183594 23.808594 323.34375 23.648438 323.34375 23.453125"/></g><g id="change1_7"><path fill="#ffffff" d="M 391.164062 20.386719 C 391.164062 19.996094 390.847656 19.683594 390.457031 19.683594 C 390.070312 19.683594 389.753906 19.996094 389.753906 20.386719 C 389.753906 20.777344 390.070312 21.09375 390.457031 21.09375 C 390.847656 21.09375 391.164062 20.777344 391.164062 20.386719"/></g><g id="change1_8"><path fill="#ffffff" d="M 459.109375 20.59375 C 459.109375 20.300781 458.871094 20.0625 458.578125 20.0625 C 458.285156 20.0625 458.046875 20.300781 458.046875 20.59375 C 458.046875 20.886719 458.285156 21.125 458.578125 21.125 C 458.871094 21.125 459.109375 20.886719 459.109375 20.59375"/></g><g id="change1_9"><path fill="#ffffff" d="M 526.050781 24.019531 C 526.050781 23.921875 525.972656 23.84375 525.875 23.84375 C 525.777344 23.84375 525.695312 23.921875 525.695312 24.019531 C 525.695312 24.117188 525.777344 24.199219 525.875 24.199219 C 525.972656 24.199219 526.050781 24.117188 526.050781 24.019531"/></g><g id="change1_10"><path fill="#ffffff" d="M 222.390625 54.085938 C 222.390625 53.988281 222.3125 53.910156 222.214844 53.910156 C 222.113281 53.910156 222.035156 53.988281 222.035156 54.085938 C 222.035156 54.183594 222.113281 54.265625 222.214844 54.265625 C 222.3125 54.265625 222.390625 54.183594 222.390625 54.085938"/></g><g id="change1_11"><path fill="#ffffff" d="M 288.132812 46.5 C 288.132812 46.011719 287.738281 45.617188 287.253906 45.617188 C 286.765625 45.617188 286.371094 46.011719 286.371094 46.5 C 286.371094 46.984375 286.765625 47.378906 287.253906 47.378906 C 287.738281 47.378906 288.132812 46.984375 288.132812 46.5"/></g><g id="change1_12"><path fill="#ffffff" d="M 356.675781 41.226562 C 356.675781 40.359375 355.972656 39.65625 355.101562 39.65625 C 354.234375 39.65625 353.53125 40.359375 353.53125 41.226562 C 353.53125 42.097656 354.234375 42.800781 355.101562 42.800781 C 355.972656 42.800781 356.675781 42.097656 356.675781 41.226562"/></g><g id="change1_13"><path fill="#ffffff" d="M 426.199219 39.492188 C 426.199219 38.621094 425.496094 37.917969 424.628906 37.917969 C 423.757812 37.917969 423.054688 38.621094 423.054688 39.492188 C 423.054688 40.359375 423.757812 41.0625 424.628906 41.0625 C 425.496094 41.0625 426.199219 40.359375 426.199219 39.492188"/></g><g id="change1_14"><path fill="#ffffff" d="M 495.265625 41.699219 C 495.265625 41.019531 494.714844 40.472656 494.035156 40.472656 C 493.359375 40.472656 492.808594 41.019531 492.808594 41.699219 C 492.808594 42.378906 493.359375 42.925781 494.035156 42.925781 C 494.714844 42.925781 495.265625 42.378906 495.265625 41.699219"/></g><g id="change1_15"><path fill="#ffffff" d="M 562.117188 47.328125 C 562.117188 47.035156 561.882812 46.800781 561.589844 46.800781 C 561.296875 46.800781 561.058594 47.035156 561.058594 47.328125 C 561.058594 47.621094 561.296875 47.859375 561.589844 47.859375 C 561.882812 47.859375 562.117188 47.621094 562.117188 47.328125"/></g><g id="change1_16"><path fill="#ffffff" d="M 187.285156 80.453125 C 187.285156 80.257812 187.128906 80.101562 186.933594 80.101562 C 186.734375 80.101562 186.578125 80.257812 186.578125 80.453125 C 186.578125 80.648438 186.734375 80.808594 186.933594 80.808594 C 187.128906 80.808594 187.285156 80.648438 187.285156 80.453125"/></g><g id="change1_17"><path fill="#ffffff" d="M 252.199219 71.015625 C 252.199219 70.238281 251.574219 69.613281 250.800781 69.613281 C 250.027344 69.613281 249.398438 70.238281 249.398438 71.015625 C 249.398438 71.789062 250.027344 72.414062 250.800781 72.414062 C 251.574219 72.414062 252.199219 71.789062 252.199219 71.015625"/></g><g id="change1_18"><path fill="#ffffff" d="M 321.171875 63.402344 C 321.171875 61.878906 319.9375 60.644531 318.417969 60.644531 C 316.894531 60.644531 315.660156 61.878906 315.660156 63.402344 C 315.660156 64.925781 316.894531 66.15625 318.417969 66.15625 C 319.9375 66.15625 321.171875 64.925781 321.171875 63.402344"/></g><g id="change1_19"><path fill="#ffffff" d="M 392.203125 59.261719 C 392.203125 57.464844 390.746094 56.007812 388.949219 56.007812 C 387.152344 56.007812 385.695312 57.464844 385.695312 59.261719 C 385.695312 61.058594 387.152344 62.515625 388.949219 62.515625 C 390.746094 62.515625 392.203125 61.058594 392.203125 59.261719"/></g><g id="change1_20"><path fill="#ffffff" d="M 463.417969 59.539062 C 463.417969 57.925781 462.109375 56.613281 460.496094 56.613281 C 458.882812 56.613281 457.570312 57.925781 457.570312 59.539062 C 457.570312 61.152344 458.882812 62.460938 460.496094 62.460938 C 462.109375 62.460938 463.417969 61.152344 463.417969 59.539062"/></g><g id="change1_21"><path fill="#ffffff" d="M 532.671875 64.171875 C 532.671875 63.113281 531.816406 62.257812 530.757812 62.257812 C 529.703125 62.257812 528.84375 63.113281 528.84375 64.171875 C 528.84375 65.226562 529.703125 66.085938 530.757812 66.085938 C 531.816406 66.085938 532.671875 65.226562 532.671875 64.171875"/></g><g id="change1_22"><path fill="#ffffff" d="M 598.644531 72.101562 C 598.644531 71.710938 598.328125 71.394531 597.9375 71.394531 C 597.546875 71.394531 597.230469 71.710938 597.230469 72.101562 C 597.230469 72.492188 597.546875 72.808594 597.9375 72.808594 C 598.328125 72.808594 598.644531 72.492188 598.644531 72.101562"/></g><g id="change1_23"><path fill="#ffffff" d="M 661.535156 81.636719 C 661.535156 81.539062 661.457031 81.460938 661.359375 81.460938 C 661.261719 81.460938 661.179688 81.539062 661.179688 81.636719 C 661.179688 81.734375 661.261719 81.8125 661.359375 81.8125 C 661.457031 81.8125 661.535156 81.734375 661.535156 81.636719"/></g><g id="change1_24"><path fill="#ffffff" d="M 152.46875 108.214844 C 152.46875 107.921875 152.230469 107.683594 151.9375 107.683594 C 151.644531 107.683594 151.40625 107.921875 151.40625 108.214844 C 151.40625 108.507812 151.644531 108.746094 151.9375 108.746094 C 152.230469 108.746094 152.46875 108.507812 152.46875 108.214844"/></g><g id="change1_25"><path fill="#ffffff" d="M 216.128906 97.296875 C 216.128906 96.148438 215.195312 95.214844 214.042969 95.214844 C 212.890625 95.214844 211.960938 96.148438 211.960938 97.296875 C 211.960938 98.449219 212.890625 99.382812 214.042969 99.382812 C 215.195312 99.382812 216.128906 98.449219 216.128906 97.296875"/></g><g id="change1_26"><path fill="#ffffff" d="M 284.398438 87.460938 C 284.398438 85.394531 282.722656 83.71875 280.65625 83.71875 C 278.589844 83.71875 276.910156 85.394531 276.910156 87.460938 C 276.910156 89.53125 278.589844 91.207031 280.65625 91.207031 C 282.722656 91.207031 284.398438 89.53125 284.398438 87.460938"/></g><g id="change1_27"><path fill="#ffffff" d="M 356.375 80.683594 C 356.375 77.996094 354.199219 75.816406 351.511719 75.816406 C 348.824219 75.816406 346.648438 77.996094 346.648438 80.683594 C 346.648438 83.371094 348.824219 85.546875 351.511719 85.546875 C 354.199219 85.546875 356.375 83.371094 356.375 80.683594"/></g><g id="change1_28"><path fill="#ffffff" d="M 429.890625 78.453125 C 429.890625 75.679688 427.640625 73.429688 424.867188 73.429688 C 422.09375 73.429688 419.847656 75.679688 419.847656 78.453125 C 419.847656 81.226562 422.09375 83.472656 424.867188 83.472656 C 427.640625 83.472656 429.890625 81.226562 429.890625 78.453125"/></g><g id="change1_29"><path fill="#ffffff" d="M 502.28125 81.285156 C 502.28125 78.953125 500.390625 77.058594 498.054688 77.058594 C 495.71875 77.058594 493.824219 78.953125 493.824219 81.285156 C 493.824219 83.621094 495.71875 85.515625 498.054688 85.515625 C 500.390625 85.515625 502.28125 83.621094 502.28125 81.285156"/></g><g id="change1_30"><path fill="#ffffff" d="M 571.21875 88.53125 C 571.21875 87.011719 569.984375 85.777344 568.460938 85.777344 C 566.9375 85.777344 565.703125 87.011719 565.703125 88.53125 C 565.703125 90.054688 566.9375 91.289062 568.460938 91.289062 C 569.984375 91.289062 571.21875 90.054688 571.21875 88.53125"/></g><g id="change1_31"><path fill="#ffffff" d="M 635.214844 98.609375 C 635.214844 98.21875 634.898438 97.902344 634.507812 97.902344 C 634.117188 97.902344 633.800781 98.21875 633.800781 98.609375 C 633.800781 99 634.117188 99.316406 634.507812 99.316406 C 634.898438 99.316406 635.214844 99 635.214844 98.609375"/></g><g id="change1_32"><path fill="#ffffff" d="M 696.296875 109.519531 C 696.296875 109.421875 696.21875 109.34375 696.121094 109.34375 C 696.023438 109.34375 695.941406 109.421875 695.941406 109.519531 C 695.941406 109.617188 696.023438 109.699219 696.121094 109.699219 C 696.21875 109.699219 696.296875 109.617188 696.296875 109.519531"/></g><g id="change1_33"><path fill="#ffffff" d="M 117.996094 137.269531 C 117.996094 137.074219 117.839844 136.914062 117.644531 136.914062 C 117.445312 136.914062 117.289062 137.074219 117.289062 137.269531 C 117.289062 137.464844 117.445312 137.625 117.644531 137.625 C 117.839844 137.625 117.996094 137.464844 117.996094 137.269531"/></g><g id="change1_34"><path fill="#ffffff" d="M 179.753906 125.433594 C 179.753906 124.1875 178.742188 123.179688 177.5 123.179688 C 176.253906 123.179688 175.246094 124.1875 175.246094 125.433594 C 175.246094 126.675781 176.253906 127.683594 177.5 127.683594 C 178.742188 127.683594 179.753906 126.675781 179.753906 125.433594"/></g><g id="change1_35"><path fill="#ffffff" d="M 246.835938 113.761719 C 246.835938 111.246094 244.800781 109.210938 242.289062 109.210938 C 239.777344 109.210938 237.742188 111.246094 237.742188 113.761719 C 237.742188 116.273438 239.777344 118.308594 242.289062 118.308594 C 244.800781 118.308594 246.835938 116.273438 246.835938 113.761719"/></g><g id="change1_36"><path fill="#ffffff" d="M 318.542969 104.398438 C 318.542969 101.082031 315.855469 98.394531 312.542969 98.394531 C 309.226562 98.394531 306.539062 101.082031 306.539062 104.398438 C 306.539062 107.710938 309.226562 110.398438 312.542969 110.398438 C 315.855469 110.398438 318.542969 107.710938 318.542969 104.398438"/></g><g id="change1_37"><path fill="#ffffff" d="M 393.671875 99.304688 C 393.671875 95.628906 390.691406 92.648438 387.015625 92.648438 C 383.339844 92.648438 380.359375 95.628906 380.359375 99.304688 C 380.359375 102.980469 383.339844 105.960938 387.015625 105.960938 C 390.691406 105.960938 393.671875 102.980469 393.671875 99.304688"/></g><g id="change1_38"><path fill="#ffffff" d="M 469.507812 99.644531 C 469.507812 96.023438 466.574219 93.089844 462.953125 93.089844 C 459.332031 93.089844 456.394531 96.023438 456.394531 99.644531 C 456.394531 103.265625 459.332031 106.203125 462.953125 106.203125 C 466.574219 106.203125 469.507812 103.265625 469.507812 99.644531"/></g><g id="change1_39"><path fill="#ffffff" d="M 542.214844 105.34375 C 542.214844 102.480469 539.898438 100.164062 537.035156 100.164062 C 534.175781 100.164062 531.859375 102.480469 531.859375 105.34375 C 531.859375 108.203125 534.175781 110.519531 537.035156 110.519531 C 539.898438 110.519531 542.214844 108.203125 542.214844 105.34375"/></g><g id="change1_40"><path fill="#ffffff" d="M 609.578125 115.101562 C 609.578125 113.484375 608.269531 112.175781 606.65625 112.175781 C 605.039062 112.175781 603.734375 113.484375 603.734375 115.101562 C 603.734375 116.714844 605.039062 118.023438 606.65625 118.023438 C 608.269531 118.023438 609.578125 116.714844 609.578125 115.101562"/></g><g id="change1_41"><path fill="#ffffff" d="M 671.664062 126.902344 C 671.664062 126.417969 671.269531 126.023438 670.785156 126.023438 C 670.296875 126.023438 669.902344 126.417969 669.902344 126.902344 C 669.902344 127.390625 670.296875 127.785156 670.785156 127.785156 C 671.269531 127.785156 671.664062 127.390625 671.664062 126.902344"/></g><g id="change1_42"><path fill="#ffffff" d="M 84.753906 167.359375 C 84.753906 167.164062 84.597656 167.007812 84.402344 167.007812 C 84.207031 167.007812 84.046875 167.164062 84.046875 167.359375 C 84.046875 167.554688 84.207031 167.714844 84.402344 167.714844 C 84.597656 167.714844 84.753906 167.554688 84.753906 167.359375"/></g><g id="change1_43"><path fill="#ffffff" d="M 143.8125 155.273438 C 143.8125 154.121094 142.878906 153.1875 141.726562 153.1875 C 140.574219 153.1875 139.644531 154.121094 139.644531 155.273438 C 139.644531 156.421875 140.574219 157.355469 141.726562 157.355469 C 142.878906 157.355469 143.8125 156.421875 143.8125 155.273438"/></g><g id="change1_44"><path fill="#ffffff" d="M 208.820312 142.386719 C 208.820312 139.699219 206.644531 137.523438 203.957031 137.523438 C 201.269531 137.523438 199.09375 139.699219 199.09375 142.386719 C 199.09375 145.074219 201.269531 147.25 203.957031 147.25 C 206.644531 147.25 208.820312 145.074219 208.820312 142.386719"/></g><g id="change1_45"><path fill="#ffffff" d="M 279.605469 130.816406 C 279.605469 126.921875 276.445312 123.761719 272.550781 123.761719 C 268.65625 123.761719 265.5 126.921875 265.5 130.816406 C 265.5 134.710938 268.65625 137.867188 272.550781 137.867188 C 276.445312 137.867188 279.605469 134.710938 279.605469 130.816406"/></g><g id="change1_46"><path fill="#ffffff" d="M 355.453125 122.820312 C 355.453125 118.210938 351.710938 114.46875 347.097656 114.46875 C 342.484375 114.46875 338.746094 118.210938 338.746094 122.820312 C 338.746094 127.433594 342.484375 131.175781 347.097656 131.175781 C 351.710938 131.175781 355.453125 127.433594 355.453125 122.820312"/></g><g id="change1_47"><path fill="#ffffff" d="M 433.707031 120.1875 C 433.707031 115.46875 429.882812 111.644531 425.164062 111.644531 C 420.449219 111.644531 416.625 115.46875 416.625 120.1875 C 416.625 124.902344 420.449219 128.726562 425.164062 128.726562 C 429.882812 128.726562 433.707031 124.902344 433.707031 120.1875"/></g><g id="change1_48"><path fill="#ffffff" d="M 510.578125 123.535156 C 510.578125 119.34375 507.179688 115.945312 502.988281 115.945312 C 498.796875 115.945312 495.398438 119.34375 495.398438 123.535156 C 495.398438 127.726562 498.796875 131.125 502.988281 131.125 C 507.179688 131.125 510.578125 127.726562 510.578125 123.535156"/></g><g id="change1_49"><path fill="#ffffff" d="M 582.550781 132.074219 C 582.550781 128.957031 580.023438 126.429688 576.90625 126.429688 C 573.789062 126.429688 571.261719 128.957031 571.261719 132.074219 C 571.261719 135.191406 573.789062 137.71875 576.90625 137.71875 C 580.023438 137.71875 582.550781 135.191406 582.550781 132.074219"/></g><g id="change1_50"><path fill="#ffffff" d="M 647.628906 143.929688 C 647.628906 142.316406 646.320312 141.007812 644.703125 141.007812 C 643.089844 141.007812 641.78125 142.316406 641.78125 143.929688 C 641.78125 145.542969 643.089844 146.851562 644.703125 146.851562 C 646.320312 146.851562 647.628906 145.542969 647.628906 143.929688"/></g><g id="change1_51"><path fill="#ffffff" d="M 706.761719 156.824219 C 706.761719 156.53125 706.523438 156.292969 706.230469 156.292969 C 705.9375 156.292969 705.699219 156.53125 705.699219 156.824219 C 705.699219 157.117188 705.9375 157.351562 706.230469 157.351562 C 706.523438 157.351562 706.761719 157.117188 706.761719 156.824219"/></g><g id="change1_52"><path fill="#ffffff" d="M 52.621094 198.125 C 52.621094 198.027344 52.542969 197.945312 52.445312 197.945312 C 52.347656 197.945312 52.265625 198.027344 52.265625 198.125 C 52.265625 198.222656 52.347656 198.300781 52.445312 198.300781 C 52.542969 198.300781 52.621094 198.222656 52.621094 198.125"/></g><g id="change1_53"><path fill="#ffffff" d="M 108.976562 186.476562 C 108.976562 185.515625 108.195312 184.734375 107.234375 184.734375 C 106.269531 184.734375 105.488281 185.515625 105.488281 186.476562 C 105.488281 187.441406 106.269531 188.222656 107.234375 188.222656 C 108.195312 188.222656 108.976562 187.441406 108.976562 186.476562"/></g><g id="change1_54"><path fill="#ffffff" d="M 170.929688 173.15625 C 170.929688 170.644531 168.894531 168.609375 166.382812 168.609375 C 163.871094 168.609375 161.835938 170.644531 161.835938 173.15625 C 161.835938 175.667969 163.871094 177.703125 166.382812 177.703125 C 168.894531 177.703125 170.929688 175.667969 170.929688 173.15625"/></g><g id="change1_55"><path fill="#ffffff" d="M 239.78125 160.050781 C 239.78125 155.914062 236.425781 152.558594 232.289062 152.558594 C 228.148438 152.558594 224.796875 155.914062 224.796875 160.050781 C 224.796875 164.1875 228.148438 167.542969 232.289062 167.542969 C 236.425781 167.542969 239.78125 164.1875 239.78125 160.050781"/></g><g id="change1_56"><path fill="#ffffff" d="M 315.039062 149.492188 C 315.039062 144.289062 310.824219 140.074219 305.621094 140.074219 C 300.421875 140.074219 296.207031 144.289062 296.207031 149.492188 C 296.207031 154.691406 300.421875 158.90625 305.621094 158.90625 C 310.824219 158.90625 315.039062 154.691406 315.039062 149.492188"/></g><g id="change1_57"><path fill="#ffffff" d="M 394.953125 143.71875 C 394.953125 138.074219 390.378906 133.5 384.734375 133.5 C 379.089844 133.5 374.511719 138.074219 374.511719 143.71875 C 374.511719 149.363281 379.089844 153.9375 384.734375 153.9375 C 390.378906 153.9375 394.953125 149.363281 394.953125 143.71875"/></g><g id="change1_58"><path fill="#ffffff" d="M 475.675781 144.105469 C 475.675781 138.683594 471.277344 134.285156 465.855469 134.285156 C 460.429688 134.285156 456.03125 138.683594 456.03125 144.105469 C 456.03125 149.53125 460.429688 153.929688 465.855469 153.929688 C 471.277344 153.929688 475.675781 149.53125 475.675781 144.105469"/></g><g id="change1_59"><path fill="#ffffff" d="M 552.546875 150.558594 C 552.546875 146.078125 548.910156 142.441406 544.429688 142.441406 C 539.945312 142.441406 536.3125 146.078125 536.3125 150.558594 C 536.3125 155.042969 539.945312 158.675781 544.429688 158.675781 C 548.910156 158.675781 552.546875 155.042969 552.546875 150.558594"/></g><g id="change1_60"><path fill="#ffffff" d="M 622.542969 161.558594 C 622.542969 158.441406 620.015625 155.914062 616.898438 155.914062 C 613.78125 155.914062 611.253906 158.441406 611.253906 161.558594 C 611.253906 164.675781 613.78125 167.203125 616.898438 167.203125 C 620.015625 167.203125 622.542969 164.675781 622.542969 161.558594"/></g><g id="change1_61"><path fill="#ffffff" d="M 684.492188 174.808594 C 684.492188 173.378906 683.335938 172.21875 681.90625 172.21875 C 680.472656 172.21875 679.316406 173.378906 679.316406 174.808594 C 679.316406 176.238281 680.472656 177.398438 681.90625 177.398438 C 683.335938 177.398438 684.492188 176.238281 684.492188 174.808594"/></g><g id="change1_62"><path fill="#ffffff" d="M 740.722656 188.015625 C 740.722656 187.820312 740.566406 187.660156 740.371094 187.660156 C 740.175781 187.660156 740.015625 187.820312 740.015625 188.015625 C 740.015625 188.210938 740.175781 188.371094 740.371094 188.371094 C 740.566406 188.371094 740.722656 188.210938 740.722656 188.015625"/></g><g id="change1_63"><path fill="#ffffff" d="M 75.445312 218.570312 C 75.445312 217.988281 74.972656 217.515625 74.390625 217.515625 C 73.808594 217.515625 73.335938 217.988281 73.335938 218.570312 C 73.335938 219.152344 73.808594 219.625 74.390625 219.625 C 74.972656 219.625 75.445312 219.152344 75.445312 218.570312"/></g><g id="change1_64"><path fill="#ffffff" d="M 134.480469 205.636719 C 134.480469 203.300781 132.589844 201.40625 130.253906 201.40625 C 127.917969 201.40625 126.023438 203.300781 126.023438 205.636719 C 126.023438 207.972656 127.917969 209.863281 130.253906 209.863281 C 132.589844 209.863281 134.480469 207.972656 134.480469 205.636719"/></g><g id="change1_65"><path fill="#ffffff" d="M 200.089844 191.878906 C 200.089844 187.769531 196.757812 184.4375 192.648438 184.4375 C 188.535156 184.4375 185.203125 187.769531 185.203125 191.878906 C 185.203125 195.992188 188.535156 199.324219 192.648438 199.324219 C 196.757812 199.324219 200.089844 195.992188 200.089844 191.878906"/></g><g id="change1_66"><path fill="#ffffff" d="M 273.507812 179.453125 C 273.507812 173.882812 268.992188 169.367188 263.421875 169.367188 C 257.851562 169.367188 253.332031 173.882812 253.332031 179.453125 C 253.332031 185.027344 257.851562 189.542969 263.421875 189.542969 C 268.992188 189.542969 273.507812 185.027344 273.507812 179.453125"/></g><g id="change1_67"><path fill="#ffffff" d="M 353.855469 170.808594 C 353.855469 164.316406 348.59375 159.054688 342.101562 159.054688 C 335.613281 159.054688 330.351562 164.316406 330.351562 170.808594 C 330.351562 177.296875 335.613281 182.558594 342.101562 182.558594 C 348.59375 182.558594 353.855469 177.296875 353.855469 170.808594"/></g><g id="change1_68"><path fill="#ffffff" d="M 437.621094 167.941406 C 437.621094 161.25 432.195312 155.824219 425.5 155.824219 C 418.808594 155.824219 413.382812 161.25 413.382812 167.941406 C 413.382812 174.636719 418.808594 180.0625 425.5 180.0625 C 432.195312 180.0625 437.621094 174.636719 437.621094 167.941406"/></g><g id="change1_69"><path fill="#ffffff" d="M 519.445312 171.582031 C 519.445312 165.578125 514.578125 160.710938 508.574219 160.710938 C 502.570312 160.710938 497.703125 165.578125 497.703125 171.582031 C 497.703125 177.585938 502.570312 182.453125 508.574219 182.453125 C 514.578125 182.453125 519.445312 177.585938 519.445312 171.582031"/></g><g id="change1_70"><path fill="#ffffff" d="M 594.859375 180.8125 C 594.859375 176.148438 591.078125 172.367188 586.410156 172.367188 C 581.746094 172.367188 577.964844 176.148438 577.964844 180.8125 C 577.964844 185.476562 581.746094 189.261719 586.410156 189.261719 C 591.078125 189.261719 594.859375 185.476562 594.859375 180.8125"/></g><g id="change1_71"><path fill="#ffffff" d="M 661.574219 193.53125 C 661.574219 190.527344 659.140625 188.09375 656.136719 188.09375 C 653.132812 188.09375 650.699219 190.527344 650.699219 193.53125 C 650.699219 196.535156 653.132812 198.96875 656.136719 198.96875 C 659.140625 198.96875 661.574219 196.535156 661.574219 193.53125"/></g><g id="change1_72"><path fill="#ffffff" d="M 719.515625 207.289062 C 719.515625 206.234375 718.660156 205.375 717.601562 205.375 C 716.542969 205.375 715.6875 206.234375 715.6875 207.289062 C 715.6875 208.347656 716.542969 209.203125 717.601562 209.203125 C 718.660156 209.203125 719.515625 208.347656 719.515625 207.289062"/></g><g id="change1_73"><path fill="#ffffff" d="M 773.050781 220.007812 C 773.050781 219.910156 772.972656 219.828125 772.871094 219.828125 C 772.773438 219.828125 772.695312 219.910156 772.695312 220.007812 C 772.695312 220.105469 772.773438 220.183594 772.871094 220.183594 C 772.972656 220.183594 773.050781 220.105469 773.050781 220.007812"/></g><g id="change1_74"><path fill="#ffffff" d="M 43.898438 251.011719 C 43.898438 250.71875 43.660156 250.480469 43.367188 250.480469 C 43.074219 250.480469 42.835938 250.71875 42.835938 251.011719 C 42.835938 251.304688 43.074219 251.539062 43.367188 251.539062 C 43.660156 251.539062 43.898438 251.304688 43.898438 251.011719"/></g><g id="change1_75"><path fill="#ffffff" d="M 99.53125 239.210938 C 99.53125 237.324219 98 235.792969 96.113281 235.792969 C 94.226562 235.792969 92.695312 237.324219 92.695312 239.210938 C 92.695312 241.101562 94.226562 242.628906 96.113281 242.628906 C 98 242.628906 99.53125 241.101562 99.53125 239.210938"/></g><g id="change1_76"><path fill="#ffffff" d="M 161.386719 225.765625 C 161.386719 221.980469 158.316406 218.910156 154.53125 218.910156 C 150.746094 218.910156 147.675781 221.980469 147.675781 225.765625 C 147.675781 229.550781 150.746094 232.621094 154.53125 232.621094 C 158.316406 232.621094 161.386719 229.550781 161.386719 225.765625"/></g><g id="change1_77"><path fill="#ffffff" d="M 231.648438 212.453125 C 231.648438 206.882812 227.132812 202.367188 221.5625 202.367188 C 215.988281 202.367188 211.472656 206.882812 211.472656 212.453125 C 211.472656 218.023438 215.988281 222.539062 221.5625 222.539062 C 227.132812 222.539062 231.648438 218.023438 231.648438 212.453125"/></g><g id="change1_78"><path fill="#ffffff" d="M 310.859375 201.628906 C 310.859375 194.605469 305.167969 188.910156 298.144531 188.910156 C 291.121094 188.910156 285.429688 194.605469 285.429688 201.628906 C 285.429688 208.648438 291.121094 214.34375 298.144531 214.34375 C 305.167969 214.34375 310.859375 208.648438 310.859375 201.628906"/></g><g id="change1_79"><path fill="#ffffff" d="M 396.003906 195.667969 C 396.003906 188.074219 389.847656 181.917969 382.253906 181.917969 C 374.660156 181.917969 368.503906 188.074219 368.503906 195.667969 C 368.503906 203.261719 374.660156 209.414062 382.253906 209.414062 C 389.847656 209.414062 396.003906 203.261719 396.003906 195.667969"/></g><g id="change1_80"><path fill="#ffffff" d="M 482.414062 196.066406 C 482.414062 188.660156 476.410156 182.65625 469.003906 182.65625 C 461.597656 182.65625 455.59375 188.660156 455.59375 196.066406 C 455.59375 203.476562 461.597656 209.480469 469.003906 209.480469 C 476.410156 209.480469 482.414062 203.476562 482.414062 196.066406"/></g><g id="change1_81"><path fill="#ffffff" d="M 563.789062 202.726562 C 563.789062 196.445312 558.695312 191.351562 552.410156 191.351562 C 546.128906 191.351562 541.03125 196.445312 541.03125 202.726562 C 541.03125 209.011719 546.128906 214.105469 552.410156 214.105469 C 558.695312 214.105469 563.789062 209.011719 563.789062 202.726562"/></g><g id="change1_82"><path fill="#ffffff" d="M 636.179688 213.988281 C 636.179688 209.402344 632.464844 205.683594 627.875 205.683594 C 623.289062 205.683594 619.570312 209.402344 619.570312 213.988281 C 619.570312 218.578125 623.289062 222.296875 627.875 222.296875 C 632.464844 222.296875 636.179688 218.578125 636.179688 213.988281"/></g><g id="change1_83"><path fill="#ffffff" d="M 698.460938 227.4375 C 698.460938 224.835938 696.355469 222.730469 693.757812 222.730469 C 691.15625 222.730469 689.050781 224.835938 689.050781 227.4375 C 689.050781 230.035156 691.15625 232.144531 693.757812 232.144531 C 696.355469 232.144531 698.460938 230.035156 698.460938 227.4375"/></g><g id="change1_84"><path fill="#ffffff" d="M 752.355469 240.765625 C 752.355469 240.179688 751.882812 239.710938 751.300781 239.710938 C 750.71875 239.710938 750.246094 240.179688 750.246094 240.765625 C 750.246094 241.347656 750.71875 241.816406 751.300781 241.816406 C 751.882812 241.816406 752.355469 241.347656 752.355469 240.765625"/></g><g id="change1_85"><path fill="#ffffff" d="M 14.273438 283.289062 C 14.273438 283.191406 14.195312 283.109375 14.097656 283.109375 C 14 283.109375 13.917969 283.191406 13.917969 283.289062 C 13.917969 283.386719 14 283.464844 14.097656 283.464844 C 14.195312 283.464844 14.273438 283.386719 14.273438 283.289062"/></g><g id="change1_86"><path fill="#ffffff" d="M 66.347656 273.199219 C 66.347656 272.050781 65.414062 271.117188 64.261719 271.117188 C 63.113281 271.117188 62.179688 272.050781 62.179688 273.199219 C 62.179688 274.351562 63.113281 275.285156 64.261719 275.285156 C 65.414062 275.285156 66.347656 274.351562 66.347656 273.199219"/></g><g id="change1_87"><path fill="#ffffff" d="M 124.640625 260.945312 C 124.640625 257.660156 121.976562 254.992188 118.6875 254.992188 C 115.402344 254.992188 112.738281 257.660156 112.738281 260.945312 C 112.738281 264.230469 115.402344 266.894531 118.6875 266.894531 C 121.976562 266.894531 124.640625 264.230469 124.640625 260.945312"/></g><g id="change1_88"><path fill="#ffffff" d="M 190.949219 247.839844 C 190.949219 242.441406 186.574219 238.0625 181.175781 238.0625 C 175.773438 238.0625 171.398438 242.441406 171.398438 247.839844 C 171.398438 253.238281 175.773438 257.617188 181.175781 257.617188 C 186.574219 257.617188 190.949219 253.238281 190.949219 247.839844"/></g><g id="change1_89"><path fill="#ffffff" d="M 267.023438 235.882812 C 267.023438 228.730469 261.226562 222.929688 254.070312 222.929688 C 246.917969 222.929688 241.121094 228.730469 241.121094 235.882812 C 241.121094 243.035156 246.917969 248.832031 254.070312 248.832031 C 261.226562 248.832031 267.023438 243.035156 267.023438 235.882812"/></g><g id="change1_90"><path fill="#ffffff" d="M 352.089844 227.480469 C 352.089844 219.117188 345.308594 212.339844 336.945312 212.339844 C 328.585938 212.339844 321.804688 219.117188 321.804688 227.480469 C 321.804688 235.84375 328.585938 242.621094 336.945312 242.621094 C 345.308594 242.621094 352.089844 235.84375 352.089844 227.480469"/></g><g id="change1_91"><path fill="#ffffff" d="M 441.460938 224.683594 C 441.460938 216.058594 434.472656 209.070312 425.847656 209.070312 C 417.226562 209.070312 410.238281 216.058594 410.238281 224.683594 C 410.238281 233.304688 417.226562 240.292969 425.847656 240.292969 C 434.472656 240.292969 441.460938 233.304688 441.460938 224.683594"/></g><g id="change1_92"><path fill="#ffffff" d="M 528.523438 228.234375 C 528.523438 220.398438 522.171875 214.046875 514.332031 214.046875 C 506.496094 214.046875 500.144531 220.398438 500.144531 228.234375 C 500.144531 236.074219 506.496094 242.425781 514.332031 242.425781 C 522.171875 242.425781 528.523438 236.074219 528.523438 228.234375"/></g><g id="change1_93"><path fill="#ffffff" d="M 607.386719 237.195312 C 607.386719 230.980469 602.351562 225.945312 596.136719 225.945312 C 589.921875 225.945312 584.882812 230.980469 584.882812 237.195312 C 584.882812 243.410156 589.921875 248.449219 596.136719 248.449219 C 602.351562 248.449219 607.386719 243.410156 607.386719 237.195312"/></g><g id="change1_94"><path fill="#ffffff" d="M 675.164062 249.417969 C 675.164062 245.308594 671.832031 241.976562 667.722656 241.976562 C 663.609375 241.976562 660.277344 245.308594 660.277344 249.417969 C 660.277344 253.527344 663.609375 256.863281 667.722656 256.863281 C 671.832031 256.863281 675.164062 253.527344 675.164062 249.417969"/></g><g id="change1_95"><path fill="#ffffff" d="M 732.3125 262.515625 C 732.3125 260.71875 730.855469 259.261719 729.058594 259.261719 C 727.265625 259.261719 725.808594 260.71875 725.808594 262.515625 C 725.808594 264.3125 727.265625 265.769531 729.058594 265.769531 C 730.855469 265.769531 732.3125 264.3125 732.3125 262.515625"/></g><g id="change1_96"><path fill="#ffffff" d="M 783.105469 274.5625 C 783.105469 274.367188 782.945312 274.207031 782.75 274.207031 C 782.554688 274.207031 782.394531 274.367188 782.394531 274.5625 C 782.394531 274.757812 782.554688 274.917969 782.75 274.917969 C 782.945312 274.917969 783.105469 274.757812 783.105469 274.5625"/></g><g id="change1_97"><path fill="#ffffff" d="M 35.773438 306.953125 C 35.773438 306.367188 35.300781 305.898438 34.71875 305.898438 C 34.136719 305.898438 33.664062 306.367188 33.664062 306.953125 C 33.664062 307.535156 34.136719 308.007812 34.71875 308.007812 C 35.300781 308.007812 35.773438 307.535156 35.773438 306.953125"/></g><g id="change1_98"><path fill="#ffffff" d="M 90.140625 296.566406 C 90.140625 294.054688 88.101562 292.015625 85.589844 292.015625 C 83.078125 292.015625 81.042969 294.054688 81.042969 296.566406 C 81.042969 299.078125 83.078125 301.113281 85.589844 301.113281 C 88.101562 301.113281 90.140625 299.078125 90.140625 296.566406"/></g><g id="change1_99"><path fill="#ffffff" d="M 151.890625 284.683594 C 151.890625 279.917969 148.023438 276.050781 143.257812 276.050781 C 138.488281 276.050781 134.621094 279.917969 134.621094 284.683594 C 134.621094 289.453125 138.488281 293.320312 143.257812 293.320312 C 148.023438 293.320312 151.890625 289.453125 151.890625 284.683594"/></g><g id="change1_100"><path fill="#ffffff" d="M 223.730469 272.8125 C 223.730469 265.917969 218.144531 260.332031 211.253906 260.332031 C 204.359375 260.332031 198.773438 265.917969 198.773438 272.8125 C 198.773438 279.703125 204.359375 285.289062 211.253906 285.289062 C 218.144531 285.289062 223.730469 279.703125 223.730469 272.8125"/></g><g id="change1_101"><path fill="#ffffff" d="M 306.433594 263.050781 C 306.433594 254.464844 299.472656 247.507812 290.886719 247.507812 C 282.300781 247.507812 275.34375 254.464844 275.34375 263.050781 C 275.34375 271.636719 282.300781 278.597656 290.886719 278.597656 C 299.472656 278.597656 306.433594 271.636719 306.433594 263.050781"/></g><g id="change1_102"><path fill="#ffffff" d="M 396.972656 257.632812 C 396.972656 248.167969 389.300781 240.492188 379.832031 240.492188 C 370.367188 240.492188 362.691406 248.167969 362.691406 257.632812 C 362.691406 267.101562 370.367188 274.773438 379.832031 274.773438 C 389.300781 274.773438 396.972656 267.101562 396.972656 257.632812"/></g><g id="change1_103"><path fill="#ffffff" d="M 488.769531 258 C 488.769531 248.78125 481.296875 241.308594 472.074219 241.308594 C 462.855469 241.308594 455.382812 248.78125 455.382812 258 C 455.382812 267.21875 462.855469 274.691406 472.074219 274.691406 C 481.296875 274.691406 488.769531 267.21875 488.769531 258"/></g><g id="change1_104"><path fill="#ffffff" d="M 574.445312 264.046875 C 574.445312 256.152344 568.046875 249.75 560.148438 249.75 C 552.253906 249.75 545.851562 256.152344 545.851562 264.046875 C 545.851562 271.945312 552.253906 278.347656 560.148438 278.347656 C 568.046875 278.347656 574.445312 271.945312 574.445312 264.046875"/></g><g id="change1_105"><path fill="#ffffff" d="M 648.761719 274.191406 C 648.761719 268.472656 644.128906 263.839844 638.410156 263.839844 C 632.695312 263.839844 628.058594 268.472656 628.058594 274.191406 C 628.058594 279.90625 632.695312 284.539062 638.410156 284.539062 C 644.128906 284.539062 648.761719 279.90625 648.761719 274.191406"/></g><g id="change1_106"><path fill="#ffffff" d="M 711.171875 286.167969 C 711.171875 282.769531 708.417969 280.011719 705.019531 280.011719 C 701.621094 280.011719 698.863281 282.769531 698.863281 286.167969 C 698.863281 289.566406 701.621094 292.320312 705.019531 292.320312 C 708.417969 292.320312 711.171875 289.566406 711.171875 286.167969"/></g><g id="change1_107"><path fill="#ffffff" d="M 763.558594 297.929688 C 763.558594 296.875 762.699219 296.015625 761.644531 296.015625 C 760.585938 296.015625 759.726562 296.875 759.726562 297.929688 C 759.726562 298.988281 760.585938 299.84375 761.644531 299.84375 C 762.699219 299.84375 763.558594 298.988281 763.558594 297.929688"/></g><g id="change1_108"><path fill="#ffffff" d="M 812.15625 308.066406 C 812.15625 307.96875 812.074219 307.890625 811.976562 307.890625 C 811.878906 307.890625 811.800781 307.96875 811.800781 308.066406 C 811.800781 308.164062 811.878906 308.242188 811.976562 308.242188 C 812.074219 308.242188 812.15625 308.164062 812.15625 308.066406"/></g><g id="change1_109"><path fill="#ffffff" d="M 7.398438 339.941406 C 7.398438 339.84375 7.320312 339.761719 7.222656 339.761719 C 7.125 339.761719 7.042969 339.84375 7.042969 339.941406 C 7.042969 340.039062 7.125 340.117188 7.222656 340.117188 C 7.320312 340.117188 7.398438 340.039062 7.398438 339.941406"/></g><g id="change1_110"><path fill="#ffffff" d="M 58.28125 331.820312 C 58.28125 330.207031 56.972656 328.898438 55.359375 328.898438 C 53.746094 328.898438 52.4375 330.207031 52.4375 331.820312 C 52.4375 333.433594 53.746094 334.742188 55.359375 334.742188 C 56.972656 334.742188 58.28125 333.433594 58.28125 331.820312"/></g><g id="change1_111"><path fill="#ffffff" d="M 115.636719 321.949219 C 115.636719 318 112.4375 314.800781 108.488281 314.800781 C 104.539062 314.800781 101.335938 318 101.335938 321.949219 C 101.335938 325.898438 104.539062 329.101562 108.488281 329.101562 C 112.4375 329.101562 115.636719 325.898438 115.636719 321.949219"/></g><g id="change1_112"><path fill="#ffffff" d="M 182.332031 311.308594 C 182.332031 305.027344 177.238281 299.933594 170.957031 299.933594 C 164.671875 299.933594 159.578125 305.027344 159.578125 311.308594 C 159.578125 317.59375 164.671875 322.6875 170.957031 322.6875 C 177.238281 322.6875 182.332031 317.59375 182.332031 311.308594"/></g><g id="change1_113"><path fill="#ffffff" d="M 260.898438 301.5 C 260.898438 293.078125 254.070312 286.257812 245.652344 286.257812 C 237.234375 286.257812 230.410156 293.078125 230.410156 301.5 C 230.410156 309.917969 237.234375 316.742188 245.652344 316.742188 C 254.070312 316.742188 260.898438 309.917969 260.898438 301.5"/></g><g id="change1_114"><path fill="#ffffff" d="M 350.332031 294.539062 C 350.332031 284.5625 342.242188 276.476562 332.265625 276.476562 C 322.289062 276.476562 314.199219 284.5625 314.199219 294.539062 C 314.199219 304.515625 322.289062 312.605469 332.265625 312.605469 C 342.242188 312.605469 350.332031 304.515625 350.332031 294.539062"/></g><g id="change1_115"><path fill="#ffffff" d="M 444.898438 292.210938 C 444.898438 281.863281 436.511719 273.476562 426.164062 273.476562 C 415.820312 273.476562 407.429688 281.863281 407.429688 292.210938 C 407.429688 302.554688 415.820312 310.941406 426.164062 310.941406 C 436.511719 310.941406 444.898438 302.554688 444.898438 292.210938"/></g><g id="change1_116"><path fill="#ffffff" d="M 536.609375 295.167969 C 536.609375 285.75 528.976562 278.113281 519.558594 278.113281 C 510.140625 278.113281 502.503906 285.75 502.503906 295.167969 C 502.503906 304.585938 510.140625 312.21875 519.558594 312.21875 C 528.976562 312.21875 536.609375 304.585938 536.609375 295.167969"/></g><g id="change1_117"><path fill="#ffffff" d="M 618.292969 302.582031 C 618.292969 295.175781 612.289062 289.171875 604.882812 289.171875 C 597.472656 289.171875 591.46875 295.175781 591.46875 302.582031 C 591.46875 309.988281 597.472656 315.992188 604.882812 315.992188 C 612.289062 315.992188 618.292969 309.988281 618.292969 302.582031"/></g><g id="change1_118"><path fill="#ffffff" d="M 687.03125 312.597656 C 687.03125 307.625 683 303.59375 678.027344 303.59375 C 673.054688 303.59375 669.023438 307.625 669.023438 312.597656 C 669.023438 317.570312 673.054688 321.601562 678.027344 321.601562 C 683 321.601562 687.03125 317.570312 687.03125 312.597656"/></g><g id="change1_119"><path fill="#ffffff" d="M 743.390625 323.21875 C 743.390625 320.882812 741.496094 318.988281 739.160156 318.988281 C 736.824219 318.988281 734.933594 320.882812 734.933594 323.21875 C 734.933594 325.550781 736.824219 327.445312 739.160156 327.445312 C 741.496094 327.445312 743.390625 325.550781 743.390625 323.21875"/></g><g id="change1_120"><path fill="#ffffff" d="M 792.140625 332.914062 C 792.140625 332.527344 791.824219 332.210938 791.4375 332.210938 C 791.046875 332.210938 790.730469 332.527344 790.730469 332.914062 C 790.730469 333.304688 791.046875 333.621094 791.4375 333.621094 C 791.824219 333.621094 792.140625 333.304688 792.140625 332.914062"/></g><g id="change1_121"><path fill="#ffffff" d="M 29.167969 366.074219 C 29.167969 365.300781 28.542969 364.675781 27.769531 364.675781 C 26.996094 364.675781 26.367188 365.300781 26.367188 366.074219 C 26.367188 366.847656 26.996094 367.476562 27.769531 367.476562 C 28.542969 367.476562 29.167969 366.847656 29.167969 366.074219"/></g><g id="change1_122"><path fill="#ffffff" d="M 82.460938 358.660156 C 82.460938 355.714844 80.074219 353.328125 77.125 353.328125 C 74.179688 353.328125 71.792969 355.714844 71.792969 358.660156 C 71.792969 361.609375 74.179688 363.996094 77.125 363.996094 C 80.074219 363.996094 82.460938 361.609375 82.460938 358.660156"/></g><g id="change1_123"><path fill="#ffffff" d="M 143.890625 350.136719 C 143.890625 344.738281 139.515625 340.359375 134.113281 340.359375 C 128.714844 340.359375 124.339844 344.738281 124.339844 350.136719 C 124.339844 355.535156 128.714844 359.914062 134.113281 359.914062 C 139.515625 359.914062 143.890625 355.535156 143.890625 350.136719"/></g><g id="change1_124"><path fill="#ffffff" d="M 216.886719 341.539062 C 216.886719 333.761719 210.582031 327.457031 202.804688 327.457031 C 195.027344 327.457031 188.722656 333.761719 188.722656 341.539062 C 188.722656 349.316406 195.027344 355.617188 202.804688 355.617188 C 210.582031 355.617188 216.886719 349.316406 216.886719 341.539062"/></g><g id="change1_125"><path fill="#ffffff" d="M 302.703125 334.402344 C 302.703125 324.558594 294.726562 316.582031 284.882812 316.582031 C 275.039062 316.582031 267.0625 324.558594 267.0625 334.402344 C 267.0625 344.246094 275.039062 352.222656 284.882812 352.222656 C 294.726562 352.222656 302.703125 344.246094 302.703125 334.402344"/></g><g id="change1_126"><path fill="#ffffff" d="M 397.898438 330.414062 C 397.898438 319.324219 388.90625 310.335938 377.820312 310.335938 C 366.730469 310.335938 357.742188 319.324219 357.742188 330.414062 C 357.742188 341.503906 366.730469 350.492188 377.820312 350.492188 C 388.90625 350.492188 397.898438 341.503906 397.898438 330.414062"/></g><g id="change1_127"><path fill="#ffffff" d="M 494.074219 330.683594 C 494.074219 319.945312 485.367188 311.242188 474.632812 311.242188 C 463.894531 311.242188 455.191406 319.945312 455.191406 330.683594 C 455.191406 341.421875 463.894531 350.125 474.632812 350.125 C 485.367188 350.125 494.074219 341.421875 494.074219 330.683594"/></g><g id="change1_128"><path fill="#ffffff" d="M 582.773438 335.132812 C 582.773438 326.171875 575.507812 318.90625 566.546875 318.90625 C 557.582031 318.90625 550.316406 326.171875 550.316406 335.132812 C 550.316406 344.097656 557.582031 351.359375 566.546875 351.359375 C 575.507812 351.359375 582.773438 344.097656 582.773438 335.132812"/></g><g id="change1_129"><path fill="#ffffff" d="M 658.90625 342.539062 C 658.90625 335.984375 653.589844 330.664062 647.03125 330.664062 C 640.472656 330.664062 635.15625 335.984375 635.15625 342.539062 C 635.15625 349.097656 640.472656 354.414062 647.03125 354.414062 C 653.589844 354.414062 658.90625 349.097656 658.90625 342.539062"/></g><g id="change1_130"><path fill="#ffffff" d="M 721.144531 351.203125 C 721.144531 347.335938 718.007812 344.199219 714.140625 344.199219 C 710.273438 344.199219 707.136719 347.335938 707.136719 351.203125 C 707.136719 355.070312 710.273438 358.207031 714.140625 358.207031 C 718.007812 358.207031 721.144531 355.070312 721.144531 351.203125"/></g><g id="change1_131"><path fill="#ffffff" d="M 772.378906 359.636719 C 772.378906 358.300781 771.296875 357.214844 769.957031 357.214844 C 768.621094 357.214844 767.535156 358.300781 767.535156 359.636719 C 767.535156 360.976562 768.621094 362.058594 769.957031 362.058594 C 771.296875 362.058594 772.378906 360.976562 772.378906 359.636719"/></g><g id="change1_132"><path fill="#ffffff" d="M 818.886719 366.871094 C 818.886719 366.773438 818.808594 366.691406 818.710938 366.691406 C 818.613281 366.691406 818.53125 366.773438 818.53125 366.871094 C 818.53125 366.96875 818.613281 367.046875 818.710938 367.046875 C 818.808594 367.046875 818.886719 366.96875 818.886719 366.871094"/></g><g id="change1_133"><path fill="#ffffff" d="M 2.660156 398.917969 C 2.660156 398.722656 2.503906 398.5625 2.304688 398.5625 C 2.109375 398.5625 1.953125 398.722656 1.953125 398.917969 C 1.953125 399.113281 2.109375 399.273438 2.304688 399.273438 C 2.503906 399.273438 2.660156 399.113281 2.660156 398.917969"/></g><g id="change1_134"><path fill="#ffffff" d="M 52.097656 394.066406 C 52.097656 392.359375 50.71875 390.976562 49.011719 390.976562 C 47.304688 390.976562 45.921875 392.359375 45.921875 394.066406 C 45.921875 395.769531 47.304688 397.152344 49.011719 397.152344 C 50.71875 397.152344 52.097656 395.769531 52.097656 394.066406"/></g><g id="change1_135"><path fill="#ffffff" d="M 108.714844 388.152344 C 108.714844 383.984375 105.339844 380.609375 101.175781 380.609375 C 97.011719 380.609375 93.632812 383.984375 93.632812 388.152344 C 93.632812 392.316406 97.011719 395.691406 101.175781 395.691406 C 105.339844 395.691406 108.714844 392.316406 108.714844 388.152344"/></g><g id="change1_136"><path fill="#ffffff" d="M 175.683594 381.730469 C 175.683594 375.039062 170.257812 369.613281 163.5625 369.613281 C 156.871094 369.613281 151.445312 375.039062 151.445312 381.730469 C 151.445312 388.425781 156.871094 393.851562 163.5625 393.851562 C 170.257812 393.851562 175.683594 388.425781 175.683594 381.730469"/></g><g id="change1_137"><path fill="#ffffff" d="M 256.105469 375.765625 C 256.105469 366.597656 248.675781 359.164062 239.507812 359.164062 C 230.335938 359.164062 222.90625 366.597656 222.90625 375.765625 C 222.90625 384.933594 230.335938 392.367188 239.507812 392.367188 C 248.675781 392.367188 256.105469 384.933594 256.105469 375.765625"/></g><g id="change1_138"><path fill="#ffffff" d="M 348.941406 371.503906 C 348.941406 360.390625 339.933594 351.382812 328.824219 351.382812 C 317.714844 351.382812 308.707031 360.390625 308.707031 371.503906 C 308.707031 382.613281 317.714844 391.621094 328.824219 391.621094 C 339.933594 391.621094 348.941406 382.613281 348.941406 371.503906"/></g><g id="change1_139"><path fill="#ffffff" d="M 447.617188 370.066406 C 447.617188 358.347656 438.117188 348.847656 426.398438 348.847656 C 414.679688 348.847656 405.179688 358.347656 405.179688 370.066406 C 405.179688 381.785156 414.679688 391.285156 426.398438 391.285156 C 438.117188 391.285156 447.617188 381.785156 447.617188 370.066406"/></g><g id="change1_140"><path fill="#ffffff" d="M 542.277344 371.886719 C 542.277344 361.460938 533.824219 353.007812 523.398438 353.007812 C 512.96875 353.007812 504.515625 361.460938 504.515625 371.886719 C 504.515625 382.316406 512.96875 390.769531 523.398438 390.769531 C 533.824219 390.769531 542.277344 382.316406 542.277344 371.886719"/></g><g id="change1_141"><path fill="#ffffff" d="M 625.984375 376.425781 C 625.984375 368.292969 619.394531 361.699219 611.261719 361.699219 C 603.128906 361.699219 596.535156 368.292969 596.535156 376.425781 C 596.535156 384.558594 603.128906 391.152344 611.261719 391.152344 C 619.394531 391.152344 625.984375 384.558594 625.984375 376.425781"/></g><g id="change1_142"><path fill="#ffffff" d="M 695.113281 382.511719 C 695.113281 377.1875 690.796875 372.871094 685.472656 372.871094 C 680.148438 372.871094 675.832031 377.1875 675.832031 382.511719 C 675.832031 387.835938 680.148438 392.152344 685.472656 392.152344 C 690.796875 392.152344 695.113281 387.835938 695.113281 382.511719"/></g><g id="change1_143"><path fill="#ffffff" d="M 751.207031 388.910156 C 751.207031 386.253906 749.050781 384.101562 746.394531 384.101562 C 743.738281 384.101562 741.582031 386.253906 741.582031 388.910156 C 741.582031 391.570312 743.738281 393.722656 746.394531 393.722656 C 749.050781 393.722656 751.207031 391.570312 751.207031 388.910156"/></g><g id="change1_144"><path fill="#ffffff" d="M 798.335938 394.71875 C 798.335938 394.328125 798.019531 394.011719 797.628906 394.011719 C 797.238281 394.011719 796.921875 394.328125 796.921875 394.71875 C 796.921875 395.109375 797.238281 395.425781 797.628906 395.425781 C 798.019531 395.425781 798.335938 395.109375 798.335938 394.71875"/></g><g id="change1_145"><path fill="#ffffff" d="M 24.847656 427.695312 C 24.847656 427.015625 24.296875 426.46875 23.617188 426.46875 C 22.941406 426.46875 22.390625 427.015625 22.390625 427.695312 C 22.390625 428.371094 22.941406 428.921875 23.617188 428.921875 C 24.296875 428.921875 24.847656 428.371094 24.847656 427.695312"/></g><g id="change1_146"><path fill="#ffffff" d="M 77.238281 424.484375 C 77.238281 421.621094 74.917969 419.304688 72.058594 419.304688 C 69.199219 419.304688 66.882812 421.621094 66.882812 424.484375 C 66.882812 427.34375 69.199219 429.660156 72.058594 429.660156 C 74.917969 429.660156 77.238281 427.34375 77.238281 424.484375"/></g><g id="change1_147"><path fill="#ffffff" d="M 138.515625 420.773438 C 138.515625 415.300781 134.078125 410.863281 128.605469 410.863281 C 123.132812 410.863281 118.695312 415.300781 118.695312 420.773438 C 118.695312 426.246094 123.132812 430.683594 128.605469 430.683594 C 134.078125 430.683594 138.515625 426.246094 138.515625 420.773438"/></g><g id="change1_148"><path fill="#ffffff" d="M 212.183594 417.011719 C 212.183594 408.996094 205.6875 402.496094 197.671875 402.496094 C 189.65625 402.496094 183.15625 408.996094 183.15625 417.011719 C 183.15625 425.027344 189.65625 431.523438 197.671875 431.523438 C 205.6875 431.523438 212.183594 425.027344 212.183594 417.011719"/></g><g id="change1_149"><path fill="#ffffff" d="M 300.015625 413.871094 C 300.015625 403.484375 291.59375 395.0625 281.207031 395.0625 C 270.820312 395.0625 262.398438 403.484375 262.398438 413.871094 C 262.398438 424.257812 270.820312 432.679688 281.207031 432.679688 C 291.59375 432.679688 300.015625 424.257812 300.015625 413.871094"/></g><g id="change1_150"><path fill="#ffffff" d="M 398.214844 412.105469 C 398.214844 400.15625 388.53125 390.472656 376.582031 390.472656 C 364.632812 390.472656 354.945312 400.15625 354.945312 412.105469 C 354.945312 424.054688 364.632812 433.742188 376.582031 433.742188 C 388.53125 433.742188 398.214844 424.054688 398.214844 412.105469"/></g><g id="change1_151"><path fill="#ffffff" d="M 496.882812 412.226562 C 496.882812 400.804688 487.625 391.546875 476.203125 391.546875 C 464.78125 391.546875 455.523438 400.804688 455.523438 412.226562 C 455.523438 423.648438 464.78125 432.90625 476.203125 432.90625 C 487.625 432.90625 496.882812 423.648438 496.882812 412.226562"/></g><g id="change1_152"><path fill="#ffffff" d="M 587.507812 414.191406 C 587.507812 404.773438 579.875 397.140625 570.457031 397.140625 C 561.039062 397.140625 553.402344 404.773438 553.402344 414.191406 C 553.402344 423.609375 561.039062 431.246094 570.457031 431.246094 C 579.875 431.246094 587.507812 423.609375 587.507812 414.191406"/></g><g id="change1_153"><path fill="#ffffff" d="M 664.503906 417.449219 C 664.503906 410.691406 659.027344 405.210938 652.265625 405.210938 C 645.507812 405.210938 640.027344 410.691406 640.027344 417.449219 C 640.027344 424.210938 645.507812 429.691406 652.265625 429.691406 C 659.027344 429.691406 664.503906 424.210938 664.503906 417.449219"/></g><g id="change1_154"><path fill="#ffffff" d="M 726.6875 421.238281 C 726.6875 417.34375 723.527344 414.1875 719.632812 414.1875 C 715.738281 414.1875 712.582031 417.34375 712.582031 421.238281 C 712.582031 425.136719 715.738281 428.292969 719.632812 428.292969 C 723.527344 428.292969 726.6875 425.136719 726.6875 421.238281"/></g><g id="change1_155"><path fill="#ffffff" d="M 777.351562 424.90625 C 777.351562 423.570312 776.269531 422.484375 774.933594 422.484375 C 773.59375 422.484375 772.511719 423.570312 772.511719 424.90625 C 772.511719 426.242188 773.59375 427.328125 774.933594 427.328125 C 776.269531 427.328125 777.351562 426.242188 777.351562 424.90625"/></g><g id="change1_1" clip-path="url(#a)"><path fill="#ffffff" d="M 822.90625 428.039062 C 822.90625 427.941406 822.828125 427.863281 822.730469 427.863281 C 822.632812 427.863281 822.554688 427.941406 822.554688 428.039062 C 822.554688 428.136719 822.632812 428.214844 822.730469 428.214844 C 822.828125 428.214844 822.90625 428.136719 822.90625 428.039062"/></g><g id="change1_156"><path fill="#ffffff" d="M 0.355469 459.386719 C 0.355469 459.289062 0.277344 459.210938 0.175781 459.210938 C 0.078125 459.210938 0 459.289062 0 459.386719 C 0 459.484375 0.078125 459.566406 0.175781 459.566406 C 0.277344 459.566406 0.355469 459.484375 0.355469 459.386719"/></g><g id="change1_157"><path fill="#ffffff" d="M 49.019531 458.628906 C 49.019531 457.105469 47.785156 455.871094 46.261719 455.871094 C 44.738281 455.871094 43.507812 457.105469 43.507812 458.628906 C 43.507812 460.152344 44.738281 461.386719 46.261719 461.386719 C 47.785156 461.386719 49.019531 460.152344 49.019531 458.628906"/></g><g id="change1_158"><path fill="#ffffff" d="M 105.195312 457.703125 C 105.195312 453.726562 101.972656 450.503906 97.996094 450.503906 C 94.019531 450.503906 90.796875 453.726562 90.796875 457.703125 C 90.796875 461.679688 94.019531 464.902344 97.996094 464.902344 C 101.972656 464.902344 105.195312 461.679688 105.195312 457.703125"/></g><g id="change1_159"><path fill="#ffffff" d="M 172.207031 456.695312 C 172.207031 450.136719 166.890625 444.820312 160.332031 444.820312 C 153.773438 444.820312 148.457031 450.136719 148.457031 456.695312 C 148.457031 463.253906 153.773438 468.570312 160.332031 468.570312 C 166.890625 468.570312 172.207031 463.253906 172.207031 456.695312"/></g><g id="change1_160"><path fill="#ffffff" d="M 253.308594 455.753906 C 253.308594 446.636719 245.917969 439.246094 236.800781 439.246094 C 227.683594 439.246094 220.292969 446.636719 220.292969 455.753906 C 220.292969 464.871094 227.683594 472.261719 236.800781 472.261719 C 245.917969 472.261719 253.308594 464.871094 253.308594 455.753906"/></g><g id="change1_161"><path fill="#ffffff" d="M 347.421875 455.078125 C 347.421875 443.96875 338.414062 434.960938 327.300781 434.960938 C 316.191406 434.960938 307.183594 443.96875 307.183594 455.078125 C 307.183594 466.191406 316.191406 475.195312 327.300781 475.195312 C 338.414062 475.195312 347.421875 466.191406 347.421875 455.078125"/></g><g id="change1_162"><path fill="#ffffff" d="M 447.851562 454.851562 C 447.851562 443.058594 438.292969 433.5 426.503906 433.5 C 414.710938 433.5 405.152344 443.058594 405.152344 454.851562 C 405.152344 466.644531 414.710938 476.203125 426.503906 476.203125 C 438.292969 476.203125 447.851562 466.644531 447.851562 454.851562"/></g><g id="change1_163"><path fill="#ffffff" d="M 543.902344 455.140625 C 543.902344 444.753906 535.480469 436.332031 525.09375 436.332031 C 514.707031 436.332031 506.285156 444.753906 506.285156 455.140625 C 506.285156 465.527344 514.707031 473.949219 525.09375 473.949219 C 535.480469 473.949219 543.902344 465.527344 543.902344 455.140625"/></g><g id="change1_164"><path fill="#ffffff" d="M 628.578125 455.859375 C 628.578125 447.84375 622.082031 441.34375 614.066406 441.34375 C 606.050781 441.34375 599.550781 447.84375 599.550781 455.859375 C 599.550781 463.875 606.050781 470.371094 614.066406 470.371094 C 622.082031 470.371094 628.578125 463.875 628.578125 455.859375"/></g><g id="change1_165"><path fill="#ffffff" d="M 698.050781 456.816406 C 698.050781 451.667969 693.878906 447.492188 688.726562 447.492188 C 683.574219 447.492188 679.402344 451.667969 679.402344 456.816406 C 679.402344 461.96875 683.574219 466.144531 688.726562 466.144531 C 693.878906 466.144531 698.050781 461.96875 698.050781 456.816406"/></g><g id="change1_166"><path fill="#ffffff" d="M 753.925781 457.824219 C 753.925781 455.398438 751.960938 453.433594 749.535156 453.433594 C 747.113281 453.433594 745.148438 455.398438 745.148438 457.824219 C 745.148438 460.246094 747.113281 462.210938 749.535156 462.210938 C 751.960938 462.210938 753.925781 460.246094 753.925781 457.824219"/></g><g id="change1_167"><path fill="#ffffff" d="M 800.839844 458.730469 C 800.839844 458.4375 800.601562 458.199219 800.308594 458.199219 C 800.015625 458.199219 799.777344 458.4375 799.777344 458.730469 C 799.777344 459.023438 800.015625 459.261719 800.308594 459.261719 C 800.601562 459.261719 800.839844 459.023438 800.839844 458.730469"/></g><g id="change1_168"><path fill="#ffffff" d="M 23.851562 490.449219 C 23.851562 489.960938 23.457031 489.566406 22.96875 489.566406 C 22.484375 489.566406 22.089844 489.960938 22.089844 490.449219 C 22.089844 490.933594 22.484375 491.328125 22.96875 491.328125 C 23.457031 491.328125 23.851562 490.933594 23.851562 490.449219"/></g><g id="change1_169"><path fill="#ffffff" d="M 75.816406 492 C 75.816406 489.488281 73.777344 487.449219 71.265625 487.449219 C 68.753906 487.449219 66.71875 489.488281 66.71875 492 C 66.71875 494.511719 68.753906 496.546875 71.265625 496.546875 C 73.777344 496.546875 75.816406 494.511719 75.816406 492"/></g><g id="change1_170"><path fill="#ffffff" d="M 136.839844 493.789062 C 136.839844 488.765625 132.765625 484.695312 127.742188 484.695312 C 122.71875 484.695312 118.644531 488.765625 118.644531 493.789062 C 118.644531 498.816406 122.71875 502.886719 127.742188 502.886719 C 132.765625 502.886719 136.839844 498.816406 136.839844 493.789062"/></g><g id="change1_171"><path fill="#ffffff" d="M 210.5 495.609375 C 210.5 488.078125 204.394531 481.972656 196.863281 481.972656 C 189.332031 481.972656 183.226562 488.078125 183.226562 495.609375 C 183.226562 503.144531 189.332031 509.246094 196.863281 509.246094 C 204.394531 509.246094 210.5 503.144531 210.5 495.609375"/></g><g id="change1_172"><path fill="#ffffff" d="M 298.363281 497.132812 C 298.363281 487.335938 290.421875 479.394531 280.625 479.394531 C 270.828125 479.394531 262.886719 487.335938 262.886719 497.132812 C 262.886719 506.929688 270.828125 514.871094 280.625 514.871094 C 290.421875 514.871094 298.363281 506.929688 298.363281 497.132812"/></g><g id="change1_173"><path fill="#ffffff" d="M 396.5625 497.984375 C 396.5625 486.84375 387.527344 477.808594 376.386719 477.808594 C 365.242188 477.808594 356.207031 486.84375 356.207031 497.984375 C 356.207031 509.128906 365.242188 518.164062 376.386719 518.164062 C 387.527344 518.164062 396.5625 509.128906 396.5625 497.984375"/></g><g id="change1_174"><path fill="#ffffff" d="M 495.890625 497.929688 C 495.890625 487.191406 487.1875 478.488281 476.449219 478.488281 C 465.714844 478.488281 457.011719 487.191406 457.011719 497.929688 C 457.011719 508.664062 465.714844 517.367188 476.449219 517.367188 C 487.1875 517.367188 495.890625 508.664062 495.890625 497.929688"/></g><g id="change1_175"><path fill="#ffffff" d="M 587.109375 496.976562 C 587.109375 488.117188 579.929688 480.941406 571.074219 480.941406 C 562.21875 480.941406 555.039062 488.117188 555.039062 496.976562 C 555.039062 505.832031 562.21875 513.011719 571.074219 513.011719 C 579.929688 513.011719 587.109375 505.832031 587.109375 496.976562"/></g><g id="change1_176"><path fill="#ffffff" d="M 664.46875 495.398438 C 664.46875 489.113281 659.375 484.019531 653.089844 484.019531 C 646.808594 484.019531 641.714844 489.113281 641.714844 495.398438 C 641.714844 501.683594 646.808594 506.777344 653.089844 506.777344 C 659.375 506.777344 664.46875 501.683594 664.46875 495.398438"/></g><g id="change1_177"><path fill="#ffffff" d="M 726.75 493.566406 C 726.75 490.113281 723.949219 487.3125 720.496094 487.3125 C 717.039062 487.3125 714.238281 490.113281 714.238281 493.566406 C 714.238281 497.019531 717.039062 499.820312 720.496094 499.820312 C 723.949219 499.820312 726.75 497.019531 726.75 493.566406"/></g><g id="change1_178"><path fill="#ffffff" d="M 777.453125 491.796875 C 777.453125 490.832031 776.671875 490.050781 775.710938 490.050781 C 774.746094 490.050781 773.964844 490.832031 773.964844 491.796875 C 773.964844 492.757812 774.746094 493.539062 775.710938 493.539062 C 776.671875 493.539062 777.453125 492.757812 777.453125 491.796875"/></g><g id="change1_179"><path fill="#ffffff" d="M 1.382812 520.097656 C 1.382812 520 1.304688 519.921875 1.207031 519.921875 C 1.105469 519.921875 1.027344 520 1.027344 520.097656 C 1.027344 520.199219 1.105469 520.277344 1.207031 520.277344 C 1.304688 520.277344 1.382812 520.199219 1.382812 520.097656"/></g><g id="change1_180"><path fill="#ffffff" d="M 49.503906 523.566406 C 49.503906 522.511719 48.648438 521.652344 47.589844 521.652344 C 46.53125 521.652344 45.675781 522.511719 45.675781 523.566406 C 45.675781 524.625 46.53125 525.480469 47.589844 525.480469 C 48.648438 525.480469 49.503906 524.625 49.503906 523.566406"/></g><g id="change1_181"><path fill="#ffffff" d="M 105.480469 527.796875 C 105.480469 524.511719 102.816406 521.84375 99.53125 521.84375 C 96.242188 521.84375 93.582031 524.511719 93.582031 527.796875 C 93.582031 531.082031 96.242188 533.746094 99.53125 533.746094 C 102.816406 533.746094 105.480469 531.082031 105.480469 527.796875"/></g><g id="change1_182"><path fill="#ffffff" d="M 172.375 532.394531 C 172.375 526.605469 167.683594 521.910156 161.894531 521.910156 C 156.105469 521.910156 151.414062 526.605469 151.414062 532.394531 C 151.414062 538.183594 156.105469 542.875 161.894531 542.875 C 167.683594 542.875 172.375 538.183594 172.375 532.394531"/></g><g id="change1_183"><path fill="#ffffff" d="M 252.835938 536.675781 C 252.835938 528.542969 246.242188 521.949219 238.109375 521.949219 C 229.976562 521.949219 223.386719 528.542969 223.386719 536.675781 C 223.386719 544.808594 229.976562 551.402344 238.109375 551.402344 C 246.242188 551.402344 252.835938 544.808594 252.835938 536.675781"/></g><g id="change1_184"><path fill="#ffffff" d="M 345.859375 539.738281 C 345.859375 529.898438 337.882812 521.917969 328.039062 521.917969 C 318.195312 521.917969 310.21875 529.898438 310.21875 539.738281 C 310.21875 549.582031 318.195312 557.5625 328.039062 557.5625 C 337.882812 557.5625 345.859375 549.582031 345.859375 539.738281"/></g><g id="change1_185"><path fill="#ffffff" d="M 445.261719 540.773438 C 445.261719 530.386719 436.839844 521.964844 426.453125 521.964844 C 416.066406 521.964844 407.644531 530.386719 407.644531 540.773438 C 407.644531 551.160156 416.066406 559.578125 426.453125 559.578125 C 436.839844 559.578125 445.261719 551.160156 445.261719 540.773438"/></g><g id="change1_186"><path fill="#ffffff" d="M 540.964844 539.464844 C 540.964844 530.242188 533.492188 522.769531 524.273438 522.769531 C 515.054688 522.769531 507.578125 530.242188 507.578125 539.464844 C 507.578125 548.683594 515.054688 556.15625 524.273438 556.15625 C 533.492188 556.15625 540.964844 548.683594 540.964844 539.464844"/></g><g id="change1_187"><path fill="#ffffff" d="M 625.425781 536.199219 C 625.425781 529.179688 619.730469 523.484375 612.707031 523.484375 C 605.683594 523.484375 599.992188 529.179688 599.992188 536.199219 C 599.992188 543.222656 605.683594 548.917969 612.707031 548.917969 C 619.730469 548.917969 625.425781 543.222656 625.425781 536.199219"/></g><g id="change1_188"><path fill="#ffffff" d="M 695.128906 531.835938 C 695.128906 527.429688 691.558594 523.859375 687.152344 523.859375 C 682.75 523.859375 679.179688 527.429688 679.179688 531.835938 C 679.179688 536.238281 682.75 539.808594 687.152344 539.808594 C 691.558594 539.808594 695.128906 536.238281 695.128906 531.835938"/></g><g id="change1_189"><path fill="#ffffff" d="M 751.105469 527.253906 C 751.105469 525.546875 749.726562 524.164062 748.019531 524.164062 C 746.3125 524.164062 744.929688 525.546875 744.929688 527.253906 C 744.929688 528.957031 746.3125 530.339844 748.019531 530.339844 C 749.726562 530.339844 751.105469 528.957031 751.105469 527.253906"/></g><g id="change1_190"><path fill="#ffffff" d="M 799.191406 523.097656 C 799.191406 523 799.113281 522.921875 799.015625 522.921875 C 798.914062 522.921875 798.835938 523 798.835938 523.097656 C 798.835938 523.195312 798.914062 523.277344 799.015625 523.277344 C 799.113281 523.277344 799.191406 523.195312 799.191406 523.097656"/></g><g id="change1_191"><path fill="#ffffff" d="M 26.289062 552.652344 C 26.289062 552.453125 26.132812 552.296875 25.933594 552.296875 C 25.738281 552.296875 25.582031 552.453125 25.582031 552.652344 C 25.582031 552.847656 25.738281 553.003906 25.933594 553.003906 C 26.132812 553.003906 26.289062 552.847656 26.289062 552.652344"/></g><g id="change1_192"><path fill="#ffffff" d="M 77.8125 558.691406 C 77.8125 557.078125 76.503906 555.769531 74.890625 555.769531 C 73.273438 555.769531 71.964844 557.078125 71.964844 558.691406 C 71.964844 560.304688 73.273438 561.613281 74.890625 561.613281 C 76.503906 561.613281 77.8125 560.304688 77.8125 558.691406"/></g><g id="change1_193"><path fill="#ffffff" d="M 138.789062 565.648438 C 138.789062 561.726562 135.609375 558.546875 131.6875 558.546875 C 127.765625 558.546875 124.585938 561.726562 124.585938 565.648438 C 124.585938 569.570312 127.765625 572.75 131.6875 572.75 C 135.609375 572.75 138.789062 569.570312 138.789062 565.648438"/></g><g id="change1_194"><path fill="#ffffff" d="M 211.796875 572.683594 C 211.796875 566.472656 206.757812 561.433594 200.546875 561.433594 C 194.332031 561.433594 189.292969 566.472656 189.292969 572.683594 C 189.292969 578.898438 194.332031 583.9375 200.546875 583.9375 C 206.757812 583.9375 211.796875 578.898438 211.796875 572.683594"/></g><g id="change1_195"><path fill="#ffffff" d="M 298.304688 578.539062 C 298.304688 570.234375 291.574219 563.503906 283.265625 563.503906 C 274.960938 563.503906 268.230469 570.234375 268.230469 578.539062 C 268.230469 586.84375 274.960938 593.578125 283.265625 593.578125 C 291.574219 593.578125 298.304688 586.84375 298.304688 578.539062"/></g><g id="change1_196"><path fill="#ffffff" d="M 394.058594 581.820312 C 394.058594 572.550781 386.542969 565.035156 377.273438 565.035156 C 368.007812 565.035156 360.492188 572.550781 360.492188 581.820312 C 360.492188 591.089844 368.007812 598.601562 377.273438 598.601562 C 386.542969 598.601562 394.058594 591.089844 394.058594 581.820312"/></g><g id="change1_197"><path fill="#ffffff" d="M 491.546875 581.597656 C 491.546875 572.636719 484.28125 565.371094 475.320312 565.371094 C 466.359375 565.371094 459.09375 572.636719 459.09375 581.597656 C 459.09375 590.558594 466.359375 597.824219 475.320312 597.824219 C 484.28125 597.824219 491.546875 590.558594 491.546875 581.597656"/></g><g id="change1_198"><path fill="#ffffff" d="M 581.675781 577.9375 C 581.675781 570.53125 575.671875 564.527344 568.265625 564.527344 C 560.855469 564.527344 554.851562 570.53125 554.851562 577.9375 C 554.851562 585.347656 560.855469 591.351562 568.265625 591.351562 C 575.671875 591.351562 581.675781 585.347656 581.675781 577.9375"/></g><g id="change1_199"><path fill="#ffffff" d="M 658.480469 571.863281 C 658.480469 566.816406 654.386719 562.722656 649.335938 562.722656 C 644.285156 562.722656 640.195312 566.816406 640.195312 571.863281 C 640.195312 576.914062 644.285156 581.007812 649.335938 581.007812 C 654.386719 581.007812 658.480469 576.914062 658.480469 571.863281"/></g><g id="change1_200"><path fill="#ffffff" d="M 720.953125 564.777344 C 720.953125 562.351562 718.988281 560.386719 716.5625 560.386719 C 714.140625 560.386719 712.175781 562.351562 712.175781 564.777344 C 712.175781 567.199219 714.140625 569.164062 716.5625 569.164062 C 718.988281 569.164062 720.953125 567.199219 720.953125 564.777344"/></g><g id="change1_201"><path fill="#ffffff" d="M 772.859375 557.894531 C 772.859375 557.503906 772.542969 557.1875 772.152344 557.1875 C 771.765625 557.1875 771.449219 557.503906 771.449219 557.894531 C 771.449219 558.285156 771.765625 558.601562 772.152344 558.601562 C 772.542969 558.601562 772.859375 558.285156 772.859375 557.894531"/></g><g id="change1_202"><path fill="#ffffff" d="M 53.464844 586.824219 C 53.464844 586.433594 53.152344 586.117188 52.761719 586.117188 C 52.371094 586.117188 52.054688 586.433594 52.054688 586.824219 C 52.054688 587.210938 52.371094 587.527344 52.761719 587.527344 C 53.152344 587.527344 53.464844 587.210938 53.464844 586.824219"/></g><g id="change1_203"><path fill="#ffffff" d="M 109.402344 595.457031 C 109.402344 593.296875 107.65625 591.550781 105.496094 591.550781 C 103.339844 591.550781 101.59375 593.296875 101.59375 595.457031 C 101.59375 597.613281 103.339844 599.363281 105.496094 599.363281 C 107.65625 599.363281 109.402344 597.613281 109.402344 595.457031"/></g><g id="change1_204"><path fill="#ffffff" d="M 175.769531 604.785156 C 175.769531 600.460938 172.265625 596.957031 167.941406 596.957031 C 163.617188 596.957031 160.113281 600.460938 160.113281 604.785156 C 160.113281 609.109375 163.617188 612.617188 167.941406 612.617188 C 172.265625 612.617188 175.769531 609.109375 175.769531 604.785156"/></g><g id="change1_205"><path fill="#ffffff" d="M 254.65625 613.417969 C 254.65625 607.066406 249.507812 601.914062 243.152344 601.914062 C 236.800781 601.914062 231.648438 607.066406 231.648438 613.417969 C 231.648438 619.769531 236.800781 624.921875 243.152344 624.921875 C 249.507812 624.921875 254.65625 619.769531 254.65625 613.417969"/></g><g id="change1_206"><path fill="#ffffff" d="M 344.949219 619.558594 C 344.949219 611.78125 338.644531 605.476562 330.867188 605.476562 C 323.09375 605.476562 316.789062 611.78125 316.789062 619.558594 C 316.789062 627.335938 323.09375 633.640625 330.867188 633.640625 C 338.644531 633.640625 344.949219 627.335938 344.949219 619.558594"/></g><g id="change1_207"><path fill="#ffffff" d="M 440.984375 621.617188 C 440.984375 613.488281 434.394531 606.894531 426.261719 606.894531 C 418.128906 606.894531 411.535156 613.488281 411.535156 621.617188 C 411.535156 629.753906 418.128906 636.34375 426.261719 636.34375 C 434.394531 636.34375 440.984375 629.753906 440.984375 621.617188"/></g><g id="change1_208"><path fill="#ffffff" d="M 534.183594 619.003906 C 534.183594 611.789062 528.335938 605.9375 521.117188 605.9375 C 513.898438 605.9375 508.050781 611.789062 508.050781 619.003906 C 508.050781 626.222656 513.898438 632.070312 521.117188 632.070312 C 528.335938 632.070312 534.183594 626.222656 534.183594 619.003906"/></g><g id="change1_209"><path fill="#ffffff" d="M 617.296875 612.464844 C 617.296875 607.039062 612.902344 602.644531 607.476562 602.644531 C 602.054688 602.644531 597.65625 607.039062 597.65625 612.464844 C 597.65625 617.886719 602.054688 622.285156 607.476562 622.285156 C 612.902344 622.285156 617.296875 617.886719 617.296875 612.464844"/></g><g id="change1_210"><path fill="#ffffff" d="M 686.554688 603.65625 C 686.554688 600.625 684.097656 598.164062 681.066406 598.164062 C 678.03125 598.164062 675.574219 600.625 675.574219 603.65625 C 675.574219 606.6875 678.03125 609.144531 681.066406 609.144531 C 684.097656 609.144531 686.554688 606.6875 686.554688 603.65625"/></g><g id="change1_211"><path fill="#ffffff" d="M 743.519531 594.347656 C 743.519531 593.574219 742.890625 592.945312 742.117188 592.945312 C 741.34375 592.945312 740.71875 593.574219 740.71875 594.347656 C 740.71875 595.121094 741.34375 595.746094 742.117188 595.746094 C 742.890625 595.746094 743.519531 595.121094 743.519531 594.347656"/></g><g id="change1_212"><path fill="#ffffff" d="M 83.515625 622.277344 C 83.515625 621.601562 82.96875 621.050781 82.289062 621.050781 C 81.609375 621.050781 81.0625 621.601562 81.0625 622.277344 C 81.0625 622.957031 81.609375 623.507812 82.289062 623.507812 C 82.96875 623.507812 83.515625 622.957031 83.515625 622.277344"/></g><g id="change1_213"><path fill="#ffffff" d="M 144.089844 633.171875 C 144.089844 630.746094 142.121094 628.78125 139.699219 628.78125 C 137.277344 628.78125 135.3125 630.746094 135.3125 633.171875 C 135.3125 635.59375 137.277344 637.558594 139.699219 637.558594 C 142.121094 637.558594 144.089844 635.59375 144.089844 633.171875"/></g><g id="change1_214"><path fill="#ffffff" d="M 215.949219 644.09375 C 215.949219 639.691406 212.378906 636.121094 207.976562 636.121094 C 203.570312 636.121094 200.003906 639.691406 200.003906 644.09375 C 200.003906 648.496094 203.570312 652.066406 207.976562 652.066406 C 212.378906 652.066406 215.949219 648.496094 215.949219 644.09375"/></g><g id="change1_215"><path fill="#ffffff" d="M 299.433594 653.105469 C 299.433594 647.101562 294.566406 642.234375 288.5625 642.234375 C 282.5625 642.234375 277.695312 647.101562 277.695312 653.105469 C 277.695312 659.109375 282.5625 663.976562 288.5625 663.976562 C 294.566406 663.976562 299.433594 659.109375 299.433594 653.105469"/></g><g id="change1_216"><path fill="#ffffff" d="M 391.292969 658.121094 C 391.292969 651.363281 385.8125 645.882812 379.054688 645.882812 C 372.296875 645.882812 366.816406 651.363281 366.816406 658.121094 C 366.816406 664.882812 372.296875 670.363281 379.054688 670.363281 C 385.8125 670.363281 391.292969 664.882812 391.292969 658.121094"/></g><g id="change1_217"><path fill="#ffffff" d="M 485.058594 657.78125 C 485.058594 651.15625 479.6875 645.785156 473.0625 645.785156 C 466.4375 645.785156 461.066406 651.15625 461.066406 657.78125 C 461.066406 664.410156 466.4375 669.78125 473.0625 669.78125 C 479.6875 669.78125 485.058594 664.410156 485.058594 657.78125"/></g><g id="change1_218"><path fill="#ffffff" d="M 572.3125 652.183594 C 572.3125 646.835938 567.972656 642.496094 562.625 642.496094 C 557.273438 642.496094 552.9375 646.835938 552.9375 652.183594 C 552.9375 657.535156 557.273438 661.871094 562.625 661.871094 C 567.972656 661.871094 572.3125 657.535156 572.3125 652.183594"/></g><g id="change1_219"><path fill="#ffffff" d="M 647.859375 642.824219 C 647.859375 639.453125 645.128906 636.722656 641.757812 636.722656 C 638.386719 636.722656 635.652344 639.453125 635.652344 642.824219 C 635.652344 646.195312 638.386719 648.929688 641.757812 648.929688 C 645.128906 648.929688 647.859375 646.195312 647.859375 642.824219"/></g><g id="change1_220"><path fill="#ffffff" d="M 710.652344 631.8125 C 710.652344 630.660156 709.722656 629.726562 708.570312 629.726562 C 707.417969 629.726562 706.484375 630.660156 706.484375 631.8125 C 706.484375 632.960938 707.417969 633.894531 708.570312 633.894531 C 709.722656 633.894531 710.652344 632.960938 710.652344 631.8125"/></g><g id="change1_221"><path fill="#ffffff" d="M 765.0625 621.027344 C 765.0625 620.929688 764.984375 620.851562 764.886719 620.851562 C 764.789062 620.851562 764.710938 620.929688 764.710938 621.027344 C 764.710938 621.128906 764.789062 621.207031 764.886719 621.207031 C 764.984375 621.207031 765.0625 621.128906 765.0625 621.027344"/></g><g id="change1_222"><path fill="#ffffff" d="M 61.082031 646.816406 C 61.082031 646.71875 61.003906 646.640625 60.90625 646.640625 C 60.804688 646.640625 60.726562 646.71875 60.726562 646.816406 C 60.726562 646.914062 60.804688 646.992188 60.90625 646.992188 C 61.003906 646.992188 61.082031 646.914062 61.082031 646.816406"/></g><g id="change1_223"><path fill="#ffffff" d="M 116.246094 658.425781 C 116.246094 657.652344 115.621094 657.023438 114.847656 657.023438 C 114.074219 657.023438 113.445312 657.652344 113.445312 658.425781 C 113.445312 659.199219 114.074219 659.824219 114.847656 659.824219 C 115.621094 659.824219 116.246094 659.199219 116.246094 658.425781"/></g><g id="change1_224"><path fill="#ffffff" d="M 181.886719 670.875 C 181.886719 668.363281 179.851562 666.324219 177.339844 666.324219 C 174.828125 666.324219 172.789062 668.363281 172.789062 670.875 C 172.789062 673.386719 174.828125 675.421875 177.339844 675.421875 C 179.851562 675.421875 181.886719 673.386719 181.886719 670.875"/></g><g id="change1_225"><path fill="#ffffff" d="M 258.464844 682.273438 C 258.464844 678.109375 255.085938 674.734375 250.921875 674.734375 C 246.757812 674.734375 243.382812 678.109375 243.382812 682.273438 C 243.382812 686.4375 246.757812 689.816406 250.921875 689.816406 C 255.085938 689.816406 258.464844 686.4375 258.464844 682.273438"/></g><g id="change1_226"><path fill="#ffffff" d="M 344.753906 690.3125 C 344.753906 685.039062 340.476562 680.761719 335.199219 680.761719 C 329.925781 680.761719 325.648438 685.039062 325.648438 690.3125 C 325.648438 695.589844 329.925781 699.863281 335.199219 699.863281 C 340.476562 699.863281 344.753906 695.589844 344.753906 690.3125"/></g><g id="change1_227"><path fill="#ffffff" d="M 435.921875 692.996094 C 435.921875 687.5 431.464844 683.042969 425.96875 683.042969 C 420.46875 683.042969 416.011719 687.5 416.011719 692.996094 C 416.011719 698.492188 420.46875 702.949219 425.96875 702.949219 C 431.464844 702.949219 435.921875 698.492188 435.921875 692.996094"/></g><g id="change1_228"><path fill="#ffffff" d="M 524.871094 689.589844 C 524.871094 684.847656 521.027344 681.003906 516.28125 681.003906 C 511.539062 681.003906 507.695312 684.847656 507.695312 689.589844 C 507.695312 694.332031 511.539062 698.179688 516.28125 698.179688 C 521.027344 698.179688 524.871094 694.332031 524.871094 689.589844"/></g><g id="change1_229"><path fill="#ffffff" d="M 605.207031 681.019531 C 605.207031 677.816406 602.609375 675.222656 599.410156 675.222656 C 596.207031 675.222656 593.609375 677.816406 593.609375 681.019531 C 593.609375 684.222656 596.207031 686.816406 599.410156 686.816406 C 602.609375 686.816406 605.207031 684.222656 605.207031 681.019531"/></g><g id="change1_230"><path fill="#ffffff" d="M 674.015625 669.371094 C 674.015625 668.035156 672.929688 666.949219 671.59375 666.949219 C 670.253906 666.949219 669.171875 668.035156 669.171875 669.371094 C 669.171875 670.710938 670.253906 671.792969 671.59375 671.792969 C 672.929688 671.792969 674.015625 670.710938 674.015625 669.371094"/></g><g id="change1_231"><path fill="#ffffff" d="M 733.21875 656.9375 C 733.21875 656.742188 733.0625 656.582031 732.863281 656.582031 C 732.667969 656.582031 732.511719 656.742188 732.511719 656.9375 C 732.511719 657.132812 732.667969 657.292969 732.863281 657.292969 C 733.0625 657.292969 733.21875 657.132812 733.21875 656.9375"/></g><g id="change1_232"><path fill="#ffffff" d="M 92.429688 681.351562 C 92.429688 681.253906 92.347656 681.175781 92.25 681.175781 C 92.152344 681.175781 92.074219 681.253906 92.074219 681.351562 C 92.074219 681.449219 92.152344 681.53125 92.25 681.53125 C 92.347656 681.53125 92.429688 681.449219 92.429688 681.351562"/></g><g id="change1_233"><path fill="#ffffff" d="M 152.148438 694.449219 C 152.148438 693.488281 151.367188 692.707031 150.402344 692.707031 C 149.441406 692.707031 148.660156 693.488281 148.660156 694.449219 C 148.660156 695.414062 149.441406 696.195312 150.402344 696.195312 C 151.367188 696.195312 152.148438 695.414062 152.148438 694.449219"/></g><g id="change1_234"><path fill="#ffffff" d="M 222.027344 707.460938 C 222.027344 705.125 220.136719 703.230469 217.800781 703.230469 C 215.464844 703.230469 213.570312 705.125 213.570312 707.460938 C 213.570312 709.796875 215.464844 711.6875 217.800781 711.6875 C 220.136719 711.6875 222.027344 709.796875 222.027344 707.460938"/></g><g id="change1_235"><path fill="#ffffff" d="M 301.859375 718.078125 C 301.859375 714.570312 299.015625 711.722656 295.503906 711.722656 C 291.996094 711.722656 289.148438 714.570312 289.148438 718.078125 C 289.148438 721.589844 291.996094 724.433594 295.503906 724.433594 C 299.015625 724.433594 301.859375 721.589844 301.859375 718.078125"/></g><g id="change1_236"><path fill="#ffffff" d="M 388.816406 723.941406 C 388.816406 719.832031 385.484375 716.5 381.375 716.5 C 377.261719 716.5 373.929688 719.832031 373.929688 723.941406 C 373.929688 728.054688 377.261719 731.386719 381.375 731.386719 C 385.484375 731.386719 388.816406 728.054688 388.816406 723.941406"/></g><g id="change1_237"><path fill="#ffffff" d="M 477.121094 723.546875 C 477.121094 719.679688 473.988281 716.542969 470.117188 716.542969 C 466.25 716.542969 463.117188 719.679688 463.117188 723.546875 C 463.117188 727.414062 466.25 730.550781 470.117188 730.550781 C 473.988281 730.550781 477.121094 727.414062 477.121094 723.546875"/></g><g id="change1_238"><path fill="#ffffff" d="M 560.558594 716.996094 C 560.558594 714.050781 558.171875 711.664062 555.226562 711.664062 C 552.277344 711.664062 549.890625 714.050781 549.890625 716.996094 C 549.890625 719.945312 552.277344 722.332031 555.226562 722.332031 C 558.171875 722.332031 560.558594 719.945312 560.558594 716.996094"/></g><g id="change1_239"><path fill="#ffffff" d="M 634.144531 705.953125 C 634.144531 704.617188 633.058594 703.53125 631.722656 703.53125 C 630.382812 703.53125 629.300781 704.617188 629.300781 705.953125 C 629.300781 707.292969 630.382812 708.378906 631.722656 708.378906 C 633.058594 708.378906 634.144531 707.292969 634.144531 705.953125"/></g><g id="change1_240"><path fill="#ffffff" d="M 698.234375 692.820312 C 698.234375 692.625 698.078125 692.46875 697.882812 692.46875 C 697.683594 692.46875 697.527344 692.625 697.527344 692.820312 C 697.527344 693.015625 697.683594 693.175781 697.882812 693.175781 C 698.078125 693.175781 698.234375 693.015625 698.234375 692.820312"/></g><g id="change1_241"><path fill="#ffffff" d="M 126.285156 715.71875 C 126.285156 715.621094 126.203125 715.542969 126.105469 715.542969 C 126.007812 715.542969 125.929688 715.621094 125.929688 715.71875 C 125.929688 715.816406 126.007812 715.898438 126.105469 715.898438 C 126.203125 715.898438 126.285156 715.816406 126.285156 715.71875"/></g><g id="change1_242"><path fill="#ffffff" d="M 189.773438 729.441406 C 189.773438 728.761719 189.222656 728.210938 188.546875 728.210938 C 187.867188 728.210938 187.316406 728.761719 187.316406 729.441406 C 187.316406 730.117188 187.867188 730.667969 188.546875 730.667969 C 189.222656 730.667969 189.773438 730.117188 189.773438 729.441406"/></g><g id="change1_243"><path fill="#ffffff" d="M 263.507812 741.871094 C 263.507812 739.984375 261.976562 738.457031 260.089844 738.457031 C 258.203125 738.457031 256.671875 739.984375 256.671875 741.871094 C 256.671875 743.761719 258.203125 745.292969 260.089844 745.292969 C 261.976562 745.292969 263.507812 743.761719 263.507812 741.871094"/></g><g id="change1_244"><path fill="#ffffff" d="M 345.136719 750.554688 C 345.136719 747.867188 342.957031 745.6875 340.269531 745.6875 C 337.582031 745.6875 335.40625 747.867188 335.40625 750.554688 C 335.40625 753.242188 337.582031 755.417969 340.269531 755.417969 C 342.957031 755.417969 345.136719 753.242188 345.136719 750.554688"/></g><g id="change1_245"><path fill="#ffffff" d="M 430.648438 753.433594 C 430.648438 750.660156 428.398438 748.414062 425.625 748.414062 C 422.851562 748.414062 420.601562 750.660156 420.601562 753.433594 C 420.601562 756.210938 422.851562 758.457031 425.625 758.457031 C 428.398438 758.457031 430.648438 756.210938 430.648438 753.433594"/></g><g id="change1_246"><path fill="#ffffff" d="M 514.527344 749.777344 C 514.527344 747.617188 512.777344 745.871094 510.621094 745.871094 C 508.464844 745.871094 506.714844 747.617188 506.714844 749.777344 C 506.714844 751.933594 508.464844 753.683594 510.621094 753.683594 C 512.777344 753.683594 514.527344 751.933594 514.527344 749.777344"/></g><g id="change1_247"><path fill="#ffffff" d="M 591.792969 740.511719 C 591.792969 739.453125 590.9375 738.597656 589.878906 738.597656 C 588.820312 738.597656 587.964844 739.453125 587.964844 740.511719 C 587.964844 741.570312 588.820312 742.425781 589.878906 742.425781 C 590.9375 742.425781 591.792969 741.570312 591.792969 740.511719"/></g><g id="change1_248"><path fill="#ffffff" d="M 660.636719 727.792969 C 660.636719 727.597656 660.476562 727.4375 660.28125 727.4375 C 660.085938 727.4375 659.925781 727.597656 659.925781 727.792969 C 659.925781 727.988281 660.085938 728.144531 660.28125 728.144531 C 660.476562 728.144531 660.636719 727.988281 660.636719 727.792969"/></g><g id="change1_249"><path fill="#ffffff" d="M 162.394531 749.179688 C 162.394531 749.078125 162.316406 749 162.21875 749 C 162.121094 749 162.039062 749.078125 162.039062 749.179688 C 162.039062 749.277344 162.121094 749.355469 162.21875 749.355469 C 162.316406 749.355469 162.394531 749.277344 162.394531 749.179688"/></g><g id="change1_250"><path fill="#ffffff" d="M 229.410156 762.519531 C 229.410156 762.035156 229.015625 761.640625 228.527344 761.640625 C 228.042969 761.640625 227.648438 762.035156 227.648438 762.519531 C 227.648438 763.007812 228.042969 763.402344 228.527344 763.402344 C 229.015625 763.402344 229.410156 763.007812 229.410156 762.519531"/></g><g id="change1_251"><path fill="#ffffff" d="M 305.09375 773.304688 C 305.09375 772.152344 304.160156 771.21875 303.011719 771.21875 C 301.859375 771.21875 300.925781 772.152344 300.925781 773.304688 C 300.925781 774.453125 301.859375 775.386719 303.011719 775.386719 C 304.160156 775.386719 305.09375 774.453125 305.09375 773.304688"/></g><g id="change1_252"><path fill="#ffffff" d="M 386.625 779.210938 C 386.625 777.6875 385.390625 776.453125 383.867188 776.453125 C 382.34375 776.453125 381.109375 777.6875 381.109375 779.210938 C 381.109375 780.730469 382.34375 781.964844 383.867188 781.964844 C 385.390625 781.964844 386.625 780.730469 386.625 779.210938"/></g><g id="change1_253"><path fill="#ffffff" d="M 469.375 778.8125 C 469.375 777.476562 468.289062 776.390625 466.953125 776.390625 C 465.613281 776.390625 464.53125 777.476562 464.53125 778.8125 C 464.53125 780.148438 465.613281 781.234375 466.953125 781.234375 C 468.289062 781.234375 469.375 780.148438 469.375 778.8125"/></g><g id="change1_254"><path fill="#ffffff" d="M 548.445312 772.210938 C 548.445312 771.53125 547.898438 770.980469 547.21875 770.980469 C 546.539062 770.980469 545.992188 771.53125 545.992188 772.210938 C 545.992188 772.890625 546.539062 773.4375 547.21875 773.4375 C 547.898438 773.4375 548.445312 772.890625 548.445312 772.210938"/></g><g id="change1_255"><path fill="#ffffff" d="M 621.101562 760.984375 C 621.101562 760.789062 620.941406 760.628906 620.746094 760.628906 C 620.550781 760.628906 620.394531 760.789062 620.394531 760.984375 C 620.394531 761.179688 620.550781 761.339844 620.746094 761.339844 C 620.941406 761.339844 621.101562 761.179688 621.101562 760.984375"/></g><g id="change1_256"><path fill="#ffffff" d="M 200.230469 781.023438 C 200.230469 780.925781 200.152344 780.84375 200.054688 780.84375 C 199.957031 780.84375 199.875 780.925781 199.875 781.023438 C 199.875 781.121094 199.957031 781.199219 200.054688 781.199219 C 200.152344 781.199219 200.230469 781.121094 200.230469 781.023438"/></g><g id="change1_257"><path fill="#ffffff" d="M 269.761719 793.019531 C 269.761719 792.824219 269.601562 792.664062 269.40625 792.664062 C 269.210938 792.664062 269.054688 792.824219 269.054688 793.019531 C 269.054688 793.214844 269.210938 793.371094 269.40625 793.371094 C 269.601562 793.371094 269.761719 793.214844 269.761719 793.019531"/></g><g id="change1_258"><path fill="#ffffff" d="M 346.261719 801.324219 C 346.261719 800.835938 345.867188 800.441406 345.382812 800.441406 C 344.894531 800.441406 344.503906 800.835938 344.503906 801.324219 C 344.503906 801.808594 344.894531 802.203125 345.382812 802.203125 C 345.867188 802.203125 346.261719 801.808594 346.261719 801.324219"/></g><g id="change1_259"><path fill="#ffffff" d="M 426.160156 804.066406 C 426.160156 803.578125 425.765625 803.183594 425.28125 803.183594 C 424.792969 803.183594 424.398438 803.578125 424.398438 804.066406 C 424.398438 804.550781 424.792969 804.945312 425.28125 804.945312 C 425.765625 804.945312 426.160156 804.550781 426.160156 804.066406"/></g><g id="change1_260"><path fill="#ffffff" d="M 505.4375 800.582031 C 505.4375 800.289062 505.199219 800.050781 504.910156 800.050781 C 504.617188 800.050781 504.378906 800.289062 504.378906 800.582031 C 504.378906 800.875 504.617188 801.113281 504.910156 801.113281 C 505.199219 801.113281 505.4375 800.875 505.4375 800.582031"/></g><g id="change1_261"><path fill="#ffffff" d="M 580.355469 791.710938 C 580.355469 791.613281 580.277344 791.53125 580.179688 791.53125 C 580.082031 791.53125 580.003906 791.613281 580.003906 791.710938 C 580.003906 791.808594 580.082031 791.886719 580.179688 791.886719 C 580.277344 791.886719 580.355469 791.808594 580.355469 791.710938"/></g><g id="change1_262"><path fill="#ffffff" d="M 310.375 820.570312 C 310.375 820.472656 310.296875 820.390625 310.195312 820.390625 C 310.097656 820.390625 310.019531 820.472656 310.019531 820.570312 C 310.019531 820.667969 310.097656 820.746094 310.195312 820.746094 C 310.296875 820.746094 310.375 820.667969 310.375 820.570312"/></g><g id="change1_2" clip-path="url(#b)"><path fill="#ffffff" d="M 386.421875 825.941406 C 386.421875 825.84375 386.339844 825.765625 386.242188 825.765625 C 386.144531 825.765625 386.066406 825.84375 386.066406 825.941406 C 386.066406 826.042969 386.144531 826.121094 386.242188 826.121094 C 386.339844 826.121094 386.421875 826.042969 386.421875 825.941406"/></g><g id="change1_263"><path fill="#ffffff" d="M 464.113281 825.582031 C 464.113281 825.484375 464.03125 825.402344 463.933594 825.402344 C 463.835938 825.402344 463.757812 825.484375 463.757812 825.582031 C 463.757812 825.679688 463.835938 825.757812 463.933594 825.757812 C 464.03125 825.757812 464.113281 825.679688 464.113281 825.582031"/></g></g></svg>