<?xml version="1.0" encoding="UTF-8"?><svg xmlns="http://www.w3.org/2000/svg" xmlns:xlink="http://www.w3.org/1999/xlink" contentScriptType="text/ecmascript" fill="#000000" width="60.1" zoomAndPan="magnify" contentStyleType="text/css" viewBox="0.0 0.0 60.1 134.1" height="134.1" preserveAspectRatio="xMidYMid meet" version="1"><g id="change1_1"><path fill="#52a8e2" clip-rule="evenodd" d="M3.5566,36.376c1.9639,0,3.5566,1.5928,3.5566,3.5576 c0,1.9639-1.5927,3.5567-3.5566,3.5567S0,41.8975,0,39.9336C0,37.9688,1.5927,36.376,3.5566,36.376L3.5566,36.376z M3.5566,127.0283c1.9639,0,3.5566,1.5928,3.5566,3.5567c0,1.9648-1.5927,3.5576-3.5566,3.5576S0,132.5498,0,130.585 C0,128.6211,1.5927,127.0283,3.5566,127.0283L3.5566,127.0283z M38.8486,116.8408c-1.9644,0-3.5566,1.5928-3.5566,3.5567 c0,1.9639,1.5922,3.5566,3.5566,3.5566c1.9639,0,3.5561-1.5927,3.5561-3.5566C42.4047,118.4336,40.8125,116.8408,38.8486,116.8408 L38.8486,116.8408z M47.6714,121.9346c-1.9639,0-3.5567,1.5928-3.5567,3.5566c0,1.9639,1.5928,3.5567,3.5567,3.5567 c1.9638,0,3.5566-1.5928,3.5566-3.5567C51.228,123.5274,49.6352,121.9346,47.6714,121.9346L47.6714,121.9346z M56.4941,127.0283 c-1.9634,0-3.5561,1.5928-3.5561,3.5567c0,1.9648,1.5927,3.5576,3.5566,3.5576c1.9639,0,3.5561-1.5928,3.5561-3.5576 C60.0507,128.6211,58.4585,127.0283,56.4941,127.0283L56.4941,127.0283z M38.8486,106.293c-1.9644,0-3.5566,1.5928-3.5566,3.5566 c0,1.9649,1.5922,3.5567,3.5566,3.5567c1.9639,0,3.5561-1.5918,3.5561-3.5567C42.4047,107.8858,40.8125,106.294,38.8486,106.293 L38.8486,106.293z M47.6714,111.3877c-1.9639,0-3.5567,1.5928-3.5567,3.5557c0,1.9648,1.5928,3.5576,3.5567,3.5566 c1.9638,0.001,3.5566-1.5918,3.5566-3.5566C51.228,112.9805,49.6352,111.3877,47.6714,111.3877L47.6714,111.3877z M56.4941,116.4815c-1.9634,0-3.5561,1.5927-3.5561,3.5566c0,1.9639,1.5927,3.5567,3.5566,3.5567 c1.9639,0,3.5561-1.5928,3.5561-3.5567C60.0507,118.0742,58.4585,116.4815,56.4941,116.4815L56.4941,116.4815z M38.8486,95.7461 c-1.9644,0-3.5566,1.5928-3.5566,3.5567c0,1.9638,1.5922,3.5566,3.5566,3.5566c1.9639,0,3.5561-1.5928,3.5561-3.5566 C42.4047,97.3389,40.8125,95.7461,38.8486,95.7461L38.8486,95.7461z M47.6714,100.8399c-1.9639,0-3.5567,1.5927-3.5567,3.5566 c0,1.9639,1.5928,3.5567,3.5567,3.5567c1.9638,0,3.5566-1.5928,3.5566-3.5567C51.228,102.4326,49.6352,100.8399,47.6714,100.8399 L47.6714,100.8399z M56.4941,105.9336c-1.9634,0-3.5561,1.5928-3.5561,3.5576c0,1.9629,1.5927,3.5567,3.5566,3.5567 c1.9639,0,3.5561-1.5938,3.5561-3.5567C60.0507,107.5274,58.4585,105.9336,56.4941,105.9336L56.4941,105.9336z M30.0254,90.6524 c1.9643,0,3.5566,1.5927,3.5566,3.5566c0,1.9639-1.5923,3.5567-3.5566,3.5567c-1.9639,0-3.5562-1.5928-3.5562-3.5567 C26.4692,92.2451,28.0615,90.6524,30.0254,90.6524L30.0254,90.6524z M21.2026,95.7461c1.9639,0,3.5566,1.5928,3.5566,3.5567 c0,1.9638-1.5927,3.5566-3.5566,3.5566s-3.5566-1.5928-3.5566-3.5566C17.646,97.3389,19.2387,95.7461,21.2026,95.7461 L21.2026,95.7461z M12.3798,100.8399c1.9639,0,3.5567,1.5927,3.5567,3.5566c0,1.9639-1.5928,3.5567-3.5567,3.5567 c-1.9638,0-3.5566-1.5928-3.5566-3.5567C8.8232,102.4326,10.416,100.8399,12.3798,100.8399L12.3798,100.8399z M3.5566,105.9336 c1.9639,0,3.5566,1.5928,3.5566,3.5576c0,1.9629-1.5927,3.5567-3.5566,3.5567S0,111.4541,0,109.4912 C0,107.5264,1.5927,105.9336,3.5566,105.9336L3.5566,105.9336z M30.0254,101.1992c1.9643,0,3.5571,1.5928,3.5566,3.5567 c0,1.9639-1.5923,3.5566-3.5566,3.5566c-1.9634,0-3.5562-1.5927-3.5562-3.5566S28.0615,101.1992,30.0254,101.1992L30.0254,101.1992 z M21.2026,106.293c1.9639,0,3.5566,1.5928,3.5566,3.5566c0,1.9649-1.5927,3.5567-3.5566,3.5567s-3.5566-1.5918-3.5566-3.5567 C17.646,107.8858,19.2387,106.294,21.2026,106.293L21.2026,106.293z M12.3798,111.3877c1.9639,0,3.5567,1.5928,3.5567,3.5557 c0,1.9648-1.5928,3.5576-3.5567,3.5566c-1.9638,0.001-3.5566-1.5918-3.5566-3.5566 C8.8232,112.9805,10.416,111.3877,12.3798,111.3877L12.3798,111.3877z M3.5566,116.4815c1.9639,0,3.5566,1.5927,3.5566,3.5566 c0,1.9639-1.5927,3.5567-3.5566,3.5567S0,122.002,0,120.0381C0,118.0742,1.5927,116.4815,3.5566,116.4815L3.5566,116.4815z M30.0254,111.7471c1.9643,0,3.5566,1.5928,3.5571,3.5566c-0.0005,1.9639-1.5928,3.5567-3.5571,3.5567 c-1.9639,0-3.5562-1.5928-3.5562-3.5567C26.4692,113.3399,28.0615,111.7471,30.0254,111.7471L30.0254,111.7471z M21.2026,116.8408 c1.9639,0,3.5566,1.5928,3.5566,3.5567c0,1.9639-1.5927,3.5566-3.5566,3.5566s-3.5566-1.5927-3.5566-3.5566 C17.646,118.4336,19.2387,116.8408,21.2026,116.8408L21.2026,116.8408z M12.3798,121.9346c1.9639,0,3.5567,1.5928,3.5567,3.5566 c0,1.9639-1.5928,3.5567-3.5567,3.5567c-1.9638,0-3.5566-1.5928-3.5566-3.5567C8.8232,123.5274,10.416,121.9346,12.3798,121.9346 L12.3798,121.9346z M3.5566,81.7022c1.9639,0,3.5566,1.5927,3.5566,3.5566s-1.5927,3.5567-3.5566,3.5567S0,87.2227,0,85.2588 S1.5927,81.7022,3.5566,81.7022L3.5566,81.7022z M38.8486,71.5147c-1.9644,0-3.5566,1.5927-3.5566,3.5566 s1.5922,3.5567,3.5566,3.5567c1.9639,0,3.5561-1.5928,3.5561-3.5567S40.8125,71.5147,38.8486,71.5147L38.8486,71.5147z M47.6714,76.6084c-1.9639,0-3.5567,1.5928-3.5567,3.5567c0,1.9638,1.5928,3.5566,3.5567,3.5566 c1.9638,0,3.5566-1.5928,3.5566-3.5566C51.228,78.2012,49.6352,76.6084,47.6714,76.6084L47.6714,76.6084z M56.4941,81.7022 c-1.9634,0-3.5561,1.5927-3.5561,3.5566s1.5927,3.5567,3.5566,3.5567c1.9639,0,3.5561-1.5928,3.5561-3.5567 S58.4585,81.7022,56.4941,81.7022L56.4941,81.7022z M38.8486,60.9668c-1.9644,0-3.5566,1.5928-3.5566,3.5576 c0,1.9629,1.5922,3.5567,3.5566,3.5567c1.9639-0.001,3.5561-1.5938,3.5561-3.5576C42.4047,62.5596,40.8125,60.9668,38.8486,60.9668 L38.8486,60.9668z M47.6714,66.0615c-1.9639,0-3.5567,1.5918-3.5567,3.5567c0,1.9639,1.5928,3.5566,3.5567,3.5566 c1.9638,0,3.5566-1.5927,3.5566-3.5566C51.228,67.6533,49.6352,66.0615,47.6714,66.0615L47.6714,66.0615z M56.4941,71.1553 c-1.9634,0-3.5561,1.5928-3.5561,3.5566c0,1.9639,1.5927,3.5567,3.5566,3.5567c1.9639,0,3.5561-1.5928,3.5561-3.5567 C60.0507,72.7481,58.4585,71.1553,56.4941,71.1553L56.4941,71.1553z M38.8486,50.4199c-1.9644,0-3.5566,1.5928-3.5566,3.5567 c0,1.9639,1.5922,3.5566,3.5566,3.5566c1.9639,0,3.5561-1.5927,3.5561-3.5566C42.4047,52.0127,40.8125,50.4199,38.8486,50.4199 L38.8486,50.4199z M47.6714,55.5137c-1.9639,0-3.5567,1.5928-3.5567,3.5566c0,1.9639,1.5928,3.5567,3.5567,3.5567 c1.9638,0,3.5566-1.5928,3.5566-3.5567C51.228,57.1065,49.6352,55.5137,47.6714,55.5137L47.6714,55.5137z M56.4941,60.6074 c-1.9634,0-3.5561,1.5938-3.5561,3.5567c0,1.9648,1.5927,3.5566,3.5566,3.5566c1.9639,0,3.5561-1.5918,3.5561-3.5566 C60.0507,62.2012,58.4585,60.6074,56.4941,60.6074L56.4941,60.6074z M30.0254,45.3262c1.9643,0,3.5566,1.5928,3.5566,3.5566 c0,1.9639-1.5923,3.5567-3.5566,3.5567c-1.9639,0-3.5562-1.5928-3.5562-3.5567C26.4692,46.919,28.0615,45.3262,30.0254,45.3262 L30.0254,45.3262z M21.2026,50.4199c1.9639,0,3.5566,1.5928,3.5566,3.5567c0,1.9639-1.5927,3.5566-3.5566,3.5566 s-3.5566-1.5927-3.5566-3.5566C17.646,52.0127,19.2387,50.4199,21.2026,50.4199L21.2026,50.4199z M12.3798,55.5137 c1.9639,0,3.5567,1.5928,3.5567,3.5566c0,1.9639-1.5928,3.5567-3.5567,3.5567c-1.9638,0-3.5566-1.5928-3.5566-3.5567 C8.8232,57.1065,10.416,55.5137,12.3798,55.5137L12.3798,55.5137z M3.5566,60.6074c1.9639,0,3.5566,1.5928,3.5566,3.5567 c0,1.9648-1.5927,3.5566-3.5566,3.5566S0,66.1289,0,64.1641C0,62.2002,1.5927,60.6074,3.5566,60.6074L3.5566,60.6074z M30.0254,55.8731c1.9643,0,3.5571,1.5927,3.5566,3.5566c0,1.9639-1.5923,3.5567-3.5566,3.5567 c-1.9634,0-3.5562-1.5928-3.5562-3.5567C26.4692,57.4658,28.0615,55.8731,30.0254,55.8731L30.0254,55.8731z M21.2026,60.9668 c1.9639,0,3.5566,1.5928,3.5566,3.5576c0,1.9629-1.5927,3.5567-3.5566,3.5567c-1.9639-0.001-3.5566-1.5938-3.5566-3.5576 C17.646,62.5596,19.2387,60.9668,21.2026,60.9668L21.2026,60.9668z M12.3798,66.0615c1.9639,0,3.5567,1.5918,3.5567,3.5567 c0,1.9639-1.5928,3.5566-3.5567,3.5566c-1.9638,0-3.5566-1.5927-3.5566-3.5566C8.8232,67.6533,10.416,66.0615,12.3798,66.0615 L12.3798,66.0615z M3.5566,71.1553c1.9639,0,3.5566,1.5928,3.5566,3.5566c0,1.9639-1.5927,3.5567-3.5566,3.5567 S0,76.6758,0,74.7119C0,72.7481,1.5927,71.1553,3.5566,71.1553L3.5566,71.1553z M30.0254,66.4209 c1.9643,0,3.5566,1.5928,3.5571,3.5567c-0.0005,1.9638-1.5928,3.5566-3.5571,3.5566c-1.9639,0-3.5562-1.5928-3.5562-3.5566 C26.4692,68.0137,28.0615,66.4209,30.0254,66.4209L30.0254,66.4209z M21.2026,71.5147c1.9639,0,3.5566,1.5927,3.5566,3.5566 s-1.5927,3.5567-3.5566,3.5567s-3.5566-1.5928-3.5566-3.5567S19.2387,71.5147,21.2026,71.5147L21.2026,71.5147z M12.3798,76.6084 c1.9639,0,3.5567,1.5928,3.5567,3.5567c0,1.9638-1.5928,3.5566-3.5567,3.5566c-1.9638,0-3.5566-1.5928-3.5566-3.5566 C8.8232,78.2012,10.416,76.6084,12.3798,76.6084L12.3798,76.6084z M38.8486,26.1885c-1.9644,0-3.5566,1.5928-3.5566,3.5566 c0,1.9639,1.5922,3.5567,3.5566,3.5567c1.9639,0,3.5561-1.5928,3.5561-3.5567C42.4047,27.7813,40.8125,26.1885,38.8486,26.1885 L38.8486,26.1885z M47.6714,31.2823c-1.9639,0-3.5567,1.5927-3.5567,3.5566c0,1.9639,1.5928,3.5566,3.5567,3.5566 c1.9638,0,3.5566-1.5927,3.5566-3.5566C51.228,32.875,49.6352,31.2823,47.6714,31.2823L47.6714,31.2823z M56.4941,36.376 c-1.9634,0-3.5561,1.5928-3.5561,3.5576c0,1.9639,1.5927,3.5567,3.5566,3.5567c1.9639,0,3.5561-1.5928,3.5561-3.5567 C60.0507,37.9688,58.4585,36.376,56.4941,36.376L56.4941,36.376z M38.8486,15.6407c-1.9644,0-3.5566,1.5927-3.5566,3.5566 c0,1.9648,1.5922,3.5566,3.5566,3.5566c1.9639,0,3.5561-1.5918,3.5561-3.5566C42.4047,17.2344,40.8125,15.6416,38.8486,15.6407 L38.8486,15.6407z M47.6714,20.7354c-1.9639,0-3.5567,1.5928-3.5567,3.5556c0,1.9649,1.5928,3.5577,3.5567,3.5567 c1.9638,0.001,3.5566-1.5918,3.5566-3.5567C51.228,22.3282,49.6352,20.7354,47.6714,20.7354L47.6714,20.7354z M56.4941,25.8291 c-1.9634,0-3.5561,1.5928-3.5561,3.5567c0,1.9638,1.5927,3.5566,3.5566,3.5566c1.9639,0,3.5561-1.5928,3.5561-3.5566 C60.0507,27.4219,58.4585,25.8291,56.4941,25.8291L56.4941,25.8291z M38.8486,5.0938c-1.9644,0-3.5566,1.5927-3.5566,3.5566 s1.5922,3.5567,3.5566,3.5567c1.9639,0,3.5561-1.5928,3.5561-3.5567S40.8125,5.0938,38.8486,5.0938L38.8486,5.0938z M47.6714,10.1875c-1.9639,0-3.5567,1.5928-3.5567,3.5567c0,1.9638,1.5928,3.5566,3.5567,3.5566 c1.9638,0,3.5566-1.5928,3.5566-3.5566C51.228,11.7803,49.6352,10.1875,47.6714,10.1875L47.6714,10.1875z M56.4941,15.2823 c-1.9634,0-3.5561,1.5917-3.5561,3.5566c0,1.9629,1.5927,3.5566,3.5566,3.5566c1.9639,0,3.5561-1.5937,3.5561-3.5566 C60.0507,16.875,58.4585,15.2823,56.4941,15.2823L56.4941,15.2823z M30.0254,0c1.9643,0,3.5566,1.5928,3.5566,3.5567 c0,1.9638-1.5923,3.5566-3.5566,3.5566c-1.9639,0-3.5562-1.5928-3.5562-3.5566C26.4692,1.5928,28.0615,0,30.0254,0L30.0254,0z M21.2026,5.0938c1.9639,0,3.5566,1.5927,3.5566,3.5566s-1.5927,3.5567-3.5566,3.5567s-3.5566-1.5928-3.5566-3.5567 S19.2387,5.0938,21.2026,5.0938L21.2026,5.0938z M12.3798,10.1875c1.9639,0,3.5567,1.5928,3.5567,3.5567 c0,1.9638-1.5928,3.5566-3.5567,3.5566c-1.9638,0-3.5566-1.5928-3.5566-3.5566C8.8232,11.7803,10.416,10.1875,12.3798,10.1875 L12.3798,10.1875z M3.5566,15.2823c1.9639,0,3.5566,1.5917,3.5566,3.5566c0,1.9629-1.5927,3.5566-3.5566,3.5566 S0,20.8018,0,18.8389C0,16.874,1.5927,15.2823,3.5566,15.2823L3.5566,15.2823z M30.0254,10.5469 c1.9643,0,3.5571,1.5928,3.5566,3.5566c0,1.9649-1.5923,3.5567-3.5566,3.5567c-1.9634,0-3.5562-1.5918-3.5562-3.5567 C26.4692,12.1397,28.0615,10.5469,30.0254,10.5469L30.0254,10.5469z M21.2026,15.6407c1.9639,0,3.5566,1.5927,3.5566,3.5566 c0,1.9648-1.5927,3.5566-3.5566,3.5566s-3.5566-1.5918-3.5566-3.5566C17.646,17.2344,19.2387,15.6416,21.2026,15.6407 L21.2026,15.6407z M12.3798,20.7354c1.9639,0,3.5567,1.5928,3.5567,3.5556c0,1.9649-1.5928,3.5577-3.5567,3.5567 c-1.9638,0.001-3.5566-1.5918-3.5566-3.5567C8.8232,22.3282,10.416,20.7354,12.3798,20.7354L12.3798,20.7354z M3.5566,25.8291 c1.9639,0,3.5566,1.5928,3.5566,3.5567c0,1.9638-1.5927,3.5566-3.5566,3.5566S0,31.3496,0,29.3858 C0,27.4219,1.5927,25.8291,3.5566,25.8291L3.5566,25.8291z M30.0254,21.0948c1.9643,0,3.5566,1.5927,3.5571,3.5566 c-0.0005,1.9639-1.5928,3.5566-3.5571,3.5566c-1.9639,0-3.5562-1.5927-3.5562-3.5566S28.0615,21.0948,30.0254,21.0948 L30.0254,21.0948z M21.2026,26.1885c1.9639,0,3.5566,1.5928,3.5566,3.5566c0,1.9639-1.5927,3.5567-3.5566,3.5567 s-3.5566-1.5928-3.5566-3.5567C17.646,27.7813,19.2387,26.1885,21.2026,26.1885L21.2026,26.1885z M12.3798,31.2823 c1.9639,0,3.5567,1.5927,3.5567,3.5566c0,1.9639-1.5928,3.5566-3.5567,3.5566c-1.9638,0-3.5566-1.5927-3.5566-3.5566 C8.8232,32.875,10.416,31.2823,12.3798,31.2823L12.3798,31.2823z" fill-rule="evenodd"/></g></svg>